<svg width="31" height="22" viewBox="0 0 31 22" fill="none" xmlns="http://www.w3.org/2000/svg">
<path fill-rule="evenodd" clip-rule="evenodd" d="M5.06304 0H25.1097C26.4933 0 27.674 0.488173 28.6523 1.46406C29.1389 1.94978 29.5046 2.48527 29.7491 3.07076C29.7314 3.0779 29.7135 3.08549 29.6959 3.09375L27.7499 3.99998L15.0864 9.89657L2.423 3.99998L0.476978 3.09375C0.459305 3.08571 0.441631 3.0779 0.423735 3.07076C0.668247 2.48527 1.03377 1.94978 1.52033 1.46406C2.49861 0.488173 3.67956 0 5.06296 0H5.06304ZM15.5101 11.9063L30.1196 5.10345V17.0006C30.1196 18.3812 29.6303 19.5593 28.6521 20.5354C27.6738 21.5118 26.4931 21.9997 25.1094 21.9997H5.06339C3.67976 21.9997 2.4988 21.5118 1.52052 20.5354C0.542476 19.5593 0.0532227 18.3812 0.0532227 17.0006V5.10345L14.6627 11.9063C14.7971 11.9688 14.9383 12.0001 15.0866 12.0001C15.2349 12.0001 15.3761 11.9688 15.5105 11.9063H15.5101Z" fill="black"/>
</svg>
