<?xml version="1.0" encoding="UTF-8"?>
<svg version="1.1" xmlns="http://www.w3.org/2000/svg" width="413" height="413">
<path d="M0 0 C1.15100693 -0.00335861 2.30201385 -0.00671722 3.48789978 -0.01017761 C7.2669281 -0.01962306 11.04591181 -0.02162743 14.82495117 -0.02270508 C16.8004826 -0.02510769 18.77601403 -0.02751235 20.75154513 -0.03016549 C26.95611147 -0.03827696 33.16066334 -0.04075275 39.36523438 -0.04003906 C45.73178111 -0.03943888 52.09824296 -0.0499866 58.46476823 -0.06578273 C63.96152221 -0.07892684 69.45824868 -0.0842201 74.95501822 -0.08358365 C78.22440385 -0.0833307 81.49369768 -0.08701283 84.76307106 -0.0967617 C88.41633642 -0.10663654 92.0693869 -0.10365416 95.72265625 -0.09765625 C97.31211563 -0.10608551 97.31211563 -0.10608551 98.9336853 -0.11468506 C120.03372098 -0.02732712 139.05395782 6.4325074 154.27026367 21.30541992 C160.53348864 27.69162547 165.29927454 34.13730187 169.36791992 42.08276367 C169.69373047 42.714646 170.01954102 43.34652832 170.35522461 43.99755859 C175.92089041 55.41412332 176.58831761 66.60856534 176.74291992 79.08276367 C176.77501533 80.95841836 176.8073329 82.83406926 176.83984375 84.7097168 C176.95033396 91.8546074 177.00703959 98.99972119 177.05541992 106.14526367 C177.06081787 106.9300132 177.06621582 107.71476273 177.07177734 108.52329254 C177.1588912 121.44498398 177.20818676 134.36658556 177.23575211 147.28853226 C177.24289311 150.1345778 177.2532079 152.98059679 177.26425171 155.82662964 C177.28106998 160.38406718 177.28688042 164.94140212 177.2848053 169.49886894 C177.28551611 171.19419273 177.28955406 172.88951907 177.29725647 174.58482552 C177.39682948 198.22026305 172.95488655 217.92516484 157.05541992 236.14526367 C156.53592773 236.76014648 156.01643555 237.3750293 155.48120117 238.00854492 C142.57296038 252.15233521 123.66916635 258.86583065 105.05541992 260.14526367 C101.0460966 260.2824279 97.0405011 260.30216198 93.02905273 260.30639648 C91.30714218 260.31384384 91.30714218 260.31384384 89.55044556 260.32144165 C85.78647239 260.33593988 82.02254132 260.34284392 78.25854492 260.34838867 C76.96344749 260.35121605 75.66835007 260.35404343 74.33400726 260.35695648 C68.18573947 260.37036441 62.03749017 260.38027712 55.88920903 260.38415837 C48.84286178 260.38863396 41.796709 260.40617662 34.75042081 260.43515897 C28.60430136 260.45954353 22.45826105 260.46711039 16.31209564 260.46883392 C13.71760753 260.47184196 11.12311986 260.47980721 8.52866364 260.4930191 C-18.99902638 260.62321843 -41.49047397 257.22931194 -61.94458008 237.14526367 C-62.64583008 236.46850586 -63.34708008 235.79174805 -64.06958008 235.09448242 C-78.41803162 220.21356881 -83.09816197 200.46003158 -83.08984375 180.35766602 C-83.09320236 179.18759003 -83.09656097 178.01751404 -83.10002136 176.8119812 C-83.10950357 172.95171032 -83.11147329 169.09148297 -83.11254883 165.23120117 C-83.11397354 163.8945069 -83.11556972 162.5578128 -83.11733437 161.22111893 C-83.12657427 154.21650006 -83.13067123 147.21190015 -83.12988281 140.20727539 C-83.12928341 133.70957529 -83.13981163 127.21195857 -83.15562648 120.71427953 C-83.16877037 115.11142987 -83.17406381 109.50860722 -83.1734274 103.90574229 C-83.17317428 100.57034897 -83.17686305 97.23508831 -83.18660545 93.89970016 C-83.19647883 90.16947407 -83.19349808 86.4394585 -83.1875 82.70922852 C-83.19311951 81.62617432 -83.19873901 80.54312012 -83.20452881 79.42724609 C-83.11816554 58.1317024 -76.98216276 40.2317243 -62.94458008 24.14526367 C-62.42508789 23.53038086 -61.9055957 22.91549805 -61.37036133 22.28198242 C-45.38116446 4.76233346 -22.6329333 -0.00962448 0 0 Z M-43.00708008 44.78588867 C-52.57907327 56.44210619 -54.09027554 69.11511914 -54.10571289 83.69506836 C-54.1106778 84.82788239 -54.1156427 85.96069641 -54.12075806 87.12783813 C-54.13530566 90.85761127 -54.14216904 94.58734188 -54.14770508 98.31713867 C-54.15346226 100.92254639 -54.15921991 103.5279541 -54.16497803 106.13336182 C-54.17452813 110.89445987 -54.18043806 115.65554885 -54.18347478 120.4166553 C-54.18795081 127.3928829 -54.20548913 134.36891411 -54.23447537 141.34508204 C-54.258816 147.4169887 -54.26642477 153.48881511 -54.26815033 159.56076813 C-54.27116509 162.12982503 -54.27915356 164.69888134 -54.29233551 167.26790619 C-54.30950701 170.87138003 -54.30748858 174.47438202 -54.30102539 178.07788086 C-54.31024017 179.12555634 -54.31945496 180.17323181 -54.32894897 181.25265503 C-54.24467889 196.35102054 -49.95514049 207.67499992 -39.65942383 218.59057617 C-28.1717813 229.40053044 -14.73863113 231.29027261 0.3840332 231.30639648 C1.50534134 231.31136139 2.62664948 231.31632629 3.78193665 231.32144165 C7.4798749 231.33600786 11.17777023 231.34285656 14.87573242 231.34838867 C17.4577535 231.3541453 20.03977458 231.35990296 22.62179565 231.36566162 C27.34301861 231.37481712 32.06422457 231.38112336 36.78545487 231.38415837 C43.70112284 231.38863037 50.6165923 231.40614669 57.53219998 231.43515897 C63.55124309 231.45951979 69.57019348 231.46710943 75.58929062 231.46883392 C78.13519241 231.47184668 80.68109364 231.47982827 83.22696304 231.4930191 C103.78458765 231.59191921 120.04603234 231.29398467 135.75854492 216.60620117 C146.17483057 205.44589512 148.20100411 192.43805836 148.21655273 177.72485352 C148.22151764 176.59379181 148.22648254 175.4627301 148.2315979 174.2973938 C148.2461651 170.56698999 148.25301297 166.83662872 148.25854492 163.10620117 C148.26430145 160.50175984 148.27005912 157.89731852 148.27581787 155.2928772 C148.2853735 150.53060775 148.29127971 145.76834739 148.29431462 141.00606954 C148.29878674 134.02984178 148.31630351 127.05381079 148.34531522 120.0776428 C148.3696742 114.0062756 148.3772656 107.93498862 148.37899017 101.86357498 C148.38200319 99.29534459 148.38998564 96.72711476 148.40317535 94.15891647 C148.42037003 90.55314282 148.41832262 86.94783985 148.41186523 83.34204102 C148.42568741 81.77356415 148.42568741 81.77356415 148.43978882 80.17340088 C148.35613547 65.14317851 144.6717265 53.41528922 134.42260742 42.47729492 C122.88729446 31.11329849 110.0214057 28.83285533 94.28857422 28.87060547 C93.16828827 28.86549454 92.04800232 28.86038361 90.89376831 28.8551178 C87.22233609 28.84131678 83.55109361 28.84217152 79.87963867 28.84448242 C77.30572949 28.84059011 74.73182094 28.83625435 72.15791321 28.83149719 C66.77419677 28.82405521 61.3905527 28.82417139 56.00683594 28.82958984 C49.81916654 28.83562255 43.63172493 28.82332555 37.44409436 28.80201977 C31.44959374 28.78215219 25.45521076 28.77924509 19.46067238 28.7827549 C16.92955809 28.78224453 14.39843993 28.77706081 11.86734581 28.76694298 C-18.34582006 28.65112387 -18.34582006 28.65112387 -43.00708008 44.78588867 Z " fill="#DB4C7E" transform="translate(164.944580078125,74.854736328125)"/>
<path d="M0 0 C14.2513049 12.05701971 22.59005439 28.34960806 24.625 46.8125 C25.55732883 65.76985282 19.5192091 83.13048373 6.75 97.25 C6.22019531 97.85972656 5.69039063 98.46945313 5.14453125 99.09765625 C-5.59707292 110.7067534 -21.21913909 117.84553503 -36.90234375 118.46875 C-55.74637374 118.94083426 -70.03107084 114.52222924 -85.25 103.25 C-86.735 102.26 -86.735 102.26 -88.25 101.25 C-88.25 100.59 -88.25 99.93 -88.25 99.25 C-89.735 98.755 -89.735 98.755 -91.25 98.25 C-103.41395164 84.62819648 -109.72531244 67.84593348 -109.453125 49.609375 C-108.30971132 30.69907186 -100.15955211 14.49248358 -86.4375 1.5625 C-61.08460883 -20.32625739 -26.25104677 -19.70847819 0 0 Z M-71.49609375 27.015625 C-78.05771458 35.37474997 -81.20851805 45.66551343 -80.25 56.25 C-78.90969138 66.80257072 -73.51440457 76.32879493 -65.13671875 82.91015625 C-56.45780674 88.69136278 -46.72336738 91.01851828 -36.375 89.6875 C-25.01996425 87.38079383 -16.10155777 81.07127067 -9.3125 71.5625 C-3.8281334 61.69064011 -3.51626224 50.96329663 -6.25 40.25 C-9.49215091 30.01162869 -16.9067565 22.29043399 -26.25 17.25 C-42.21612161 10.84074261 -59.69563808 14.33311507 -71.49609375 27.015625 Z " fill="#EB2E85" transform="translate(255.25,153.75)"/>
<path d="M0 0 C3.63863814 3.11883269 6.64442625 6.24577874 8.1875 10.875 C8.55576224 16.49099916 8.40306007 20.05165989 5.1875 24.875 C1.23098212 28.77876431 -1.90546785 31.02471882 -7.5 31.1875 C-12.85074004 31.11028874 -15.58204154 30.1747576 -19.8125 26.875 C-23.53320953 22.10485957 -24.47567485 18.33851785 -24.19140625 12.3046875 C-23.34625906 6.88529007 -21.05313955 3.84269885 -16.6875 0.4375 C-11.40237704 -2.20506148 -5.42763914 -2.17105565 0 0 Z " fill="#AB0BC3" transform="translate(285.8125,125.125)"/>
<path d="M0 0 C4.19799343 0.34063287 8.36179532 0.41307393 12.57104492 0.3894043 C13.2780957 0.39327148 13.98514648 0.39713867 14.71362305 0.40112305 C18.56238699 0.39415696 22.28503074 0.1648874 26.10620117 -0.30200195 C31.63079083 -0.89885161 36.87970946 -0.42036923 42.38354492 0.2019043 C43.3400293 0.30180664 44.29651367 0.40170898 45.28198242 0.50463867 C47.60861707 0.74893531 49.93386192 1.00229196 52.25854492 1.2644043 C52.25854492 0.6044043 52.25854492 -0.0555957 52.25854492 -0.7355957 C55.05057502 -0.5950974 57.84204288 -0.44844187 60.63354492 -0.2980957 C61.82463867 -0.23912109 61.82463867 -0.23912109 63.03979492 -0.17895508 C69.03198242 0.15112305 69.03198242 0.15112305 71.25854492 1.2644043 C71.58854492 0.6044043 71.91854492 -0.0555957 72.25854492 -0.7355957 C72.25854492 -0.0755957 72.25854492 0.5844043 72.25854492 1.2644043 C72.81541992 1.0581543 73.37229492 0.8519043 73.94604492 0.6394043 C76.25854492 0.2644043 76.25854492 0.2644043 78.47729492 1.2019043 C81.74494564 2.4502203 84.58575906 2.67817485 88.07104492 2.8894043 C89.81321289 3.00155273 89.81321289 3.00155273 91.59057617 3.1159668 C92.47100586 3.16495117 93.35143555 3.21393555 94.25854492 3.2644043 C94.36295898 4.2234668 94.46737305 5.1825293 94.57495117 6.1706543 C94.80053711 7.1915918 95.02612305 8.2125293 95.25854492 9.2644043 C97.24999884 10.28131693 99.25041566 11.28083078 101.25854492 12.2644043 C102.63354492 15.4519043 102.63354492 15.4519043 103.25854492 18.2644043 C105.23854492 18.5944043 107.21854492 18.9244043 109.25854492 19.2644043 C109.56791992 20.3987793 109.87729492 21.5331543 110.19604492 22.7019043 C110.88779023 26.05215529 110.88779023 26.05215529 112.25854492 27.2644043 C113.15854886 32.66442792 113.25854492 37.80696922 113.25854492 43.2644043 C114.24854492 42.9344043 115.23854492 42.6044043 116.25854492 42.2644043 C116.25854492 43.5844043 116.25854492 44.9044043 116.25854492 46.2644043 C116.91854492 46.5944043 117.57854492 46.9244043 118.25854492 47.2644043 C116.93854492 47.9244043 115.61854492 48.5844043 114.25854492 49.2644043 C114.25992761 50.10370861 114.25992761 50.10370861 114.26133823 50.95996857 C114.28345947 64.59883007 114.29992471 78.23768841 114.31035709 91.87656403 C114.31557202 98.47232228 114.32264445 105.06806757 114.33398438 111.66381836 C114.34486262 118.03100207 114.35083224 124.39817332 114.35342216 130.7653656 C114.35526751 133.19258317 114.35887098 135.61980007 114.36427498 138.04701233 C114.37155089 141.45087143 114.37253309 144.85467927 114.37207031 148.25854492 C114.37566559 149.25836395 114.37926086 150.25818298 114.38296509 151.28829956 C114.37499785 156.71635085 114.002277 161.88958568 113.25854492 167.2644043 C113.25854492 168.5844043 113.25854492 169.9044043 113.25854492 171.2644043 C112.30522769 173.66201759 111.17711424 175.92777557 110.03588867 178.2409668 C109.77936523 178.90870117 109.5228418 179.57643555 109.25854492 180.2644043 C109.58854492 180.9244043 109.91854492 181.5844043 110.25854492 182.2644043 C109.82104492 184.3894043 109.82104492 184.3894043 109.25854492 186.2644043 C107.93854492 185.9344043 106.61854492 185.6044043 105.25854492 185.2644043 C104.71455059 180.09645811 106.19727169 176.5285012 108.28588867 171.92456055 C110.76302669 165.14973729 110.41215697 157.9606722 110.41967773 150.84399414 C110.42464264 149.71293243 110.42960754 148.58187073 110.4347229 147.41653442 C110.4492901 143.68613061 110.45613797 139.95576934 110.46166992 136.2253418 C110.46742645 133.62090047 110.47318412 131.01645914 110.47894287 128.41201782 C110.4884985 123.64974838 110.49440471 118.88748802 110.49743962 114.12521017 C110.50191174 107.14898241 110.51942851 100.17295141 110.54844022 93.19678342 C110.5727992 87.12541622 110.5803906 81.05412924 110.58211517 74.98271561 C110.58512819 72.41448522 110.59311064 69.84625538 110.60630035 67.2780571 C110.62349503 63.67228344 110.62144762 60.06698048 110.61499023 56.46118164 C110.62881241 54.89270477 110.62881241 54.89270477 110.64291382 53.2925415 C110.55893698 38.20419649 106.84349899 26.50430209 96.55932617 15.5300293 C86.68323814 5.80484923 74.73293349 3.01331218 61.2102356 3.06333923 C59.78588699 3.0835891 59.78588699 3.0835891 58.33276367 3.10424805 C56.7754805 3.11259422 56.7754805 3.11259422 55.18673706 3.12110901 C52.94348542 3.13350523 50.70025396 3.15015079 48.45706177 3.1706543 C42.3831691 3.22471532 36.30920116 3.24336599 30.23510742 3.26049805 C28.95811478 3.26443573 27.68112213 3.26837341 26.36543274 3.27243042 C10.84807524 3.3003664 -4.66445831 3.03771714 -20.17895508 2.7644043 C-21.57939622 2.74004145 -22.9798377 2.71569849 -24.38027954 2.69137573 C-32.16746114 2.55553427 -39.95451464 2.41343321 -47.74145508 2.2644043 C-47.74145508 1.9344043 -47.74145508 1.6044043 -47.74145508 1.2644043 C-42.8898623 0.94884413 -38.03767396 0.64638536 -33.18457031 0.35498047 C-31.54080324 0.2545574 -29.89723409 0.1508284 -28.25390625 0.04345703 C-18.72753019 -0.57649961 -9.52672263 -0.79043235 0 0 Z " fill="#9618BB" transform="translate(201.741455078125,101.735595703125)"/>
<path d="M0 0 C15.42152131 -0.04687974 30.84303722 -0.08206669 46.26461315 -0.10362434 C53.42635173 -0.11390339 60.58804584 -0.12789862 67.74975586 -0.15087891 C73.99746922 -0.1709167 80.24515034 -0.18374089 86.49289495 -0.18817699 C89.79597521 -0.19076693 93.09894268 -0.19785918 96.40199852 -0.21146011 C100.10423503 -0.22609108 103.80628391 -0.2279731 107.50854492 -0.22705078 C108.58389496 -0.23424133 109.659245 -0.24143188 110.7671814 -0.24884033 C131.9105721 -0.1922698 150.96518028 6.2546389 166.21484375 21.16015625 C172.47806872 27.54636179 177.24385462 33.99203819 181.3125 41.9375 C181.63831055 42.56938232 181.96412109 43.20126465 182.29980469 43.85229492 C187.89489495 55.32921654 188.53025688 66.58617949 188.6875 79.125 C188.72092066 80.99894837 188.75470842 82.87289022 188.78881836 84.74682617 C189.33965575 118.82328043 189.08272143 152.9204602 189 187 C188.67 187 188.34 187 188 187 C187.71386542 175.91586379 187.43524094 164.83156568 187.16588497 153.74700832 C187.04054815 148.5985739 186.91274217 143.45022679 186.77905273 138.30200195 C186.64983878 133.32246789 186.5274249 128.34280666 186.40948677 123.36299324 C186.36361375 121.474601 186.31539757 119.58626399 186.26466179 117.69799614 C185.97150179 106.72247059 186.0141367 95.94282832 187 85 C186.34 85 185.68 85 185 85 C184.7834375 83.3603125 184.7834375 83.3603125 184.5625 81.6875 C184.11711896 78.06877013 184.11711896 78.06877013 183 75 C183.32742188 73.97777344 183.65484375 72.95554687 183.9921875 71.90234375 C185.42220322 67.3347053 184.77982822 63.23285529 184.125 58.5625 C184.02058594 57.73556641 183.91617188 56.90863281 183.80859375 56.05664062 C183.55164893 54.03611996 183.27757949 52.01778939 183 50 C182.34 50 181.68 50 181 50 C178.8614515 47.8614515 178.57344937 46.86724686 178 44 C177.01 44 176.02 44 175 44 C175 41.36 175 38.72 175 36 C174.01 35.67 173.02 35.34 172 35 C171.6278958 33.67696283 171.29369827 32.34262065 171 31 C170.34 30.67 169.68 30.34 169 30 C169 29.01 169 28.02 169 27 C166.23723823 27.52268466 163.6739124 28.10869587 161 29 C160.67 26.36 160.34 23.72 160 21 C159.236875 20.855625 158.47375 20.71125 157.6875 20.5625 C155 20 155 20 152 19 C151.25486277 16.90006779 151 15.22568901 151 13 C149.35 12.34 147.7 11.68 146 11 C145.67 11.66 145.34 12.32 145 13 C143.02 12.67 141.04 12.34 139 12 C138.67 12.66 138.34 13.32 138 14 C137.01 13.34 136.02 12.68 135 12 C134.8125 8.375 134.8125 8.375 135 5 C134.443125 4.93941406 133.88625 4.87882812 133.3125 4.81640625 C132.549375 4.73261719 131.78625 4.64882812 131 4.5625 C130.2575 4.48128906 129.515 4.40007812 128.75 4.31640625 C126.60016059 4.06905257 124.4545595 3.78479363 122.31121826 3.48632812 C118.28322265 2.98385257 114.33293446 2.88601087 110.27050781 2.90234375 C109.54424698 2.90380402 108.81798615 2.90526428 108.06971741 2.9067688 C106.50871335 2.9105453 104.94771344 2.91663002 103.38672638 2.92483521 C100.91501506 2.93769833 98.44335793 2.944139 95.97161865 2.94897461 C90.73105458 2.96034696 85.49053572 2.97960928 80.25 3 C74.1605537 3.02362459 68.07113265 3.04398943 61.98165131 3.05593872 C59.54870684 3.06241198 57.11584095 3.07491492 54.68292236 3.08764648 C53.19258695 3.09127871 51.70225083 3.09463048 50.21191406 3.09765625 C48.9125592 3.10289307 47.61320435 3.10812988 46.2744751 3.11352539 C43.58653762 3.02033514 41.55143667 2.71771583 39 2 C37.65789145 1.89174894 36.31193981 1.82527136 34.96582031 1.79467773 C33.79505951 1.7647599 33.79505951 1.7647599 32.60064697 1.73423767 C31.76821472 1.71752518 30.93578247 1.70081268 30.078125 1.68359375 C29.21813904 1.66281265 28.35815308 1.64203156 27.47210693 1.62062073 C24.73148402 1.55536261 21.99076725 1.49635083 19.25 1.4375 C17.3893133 1.39429219 15.52863602 1.35067718 13.66796875 1.30664062 C9.11207477 1.19970558 4.5560866 1.09837149 0 1 C0 0.67 0 0.34 0 0 Z " fill="#871CCE" transform="translate(153,75)"/>
<path d="M0 0 C14.78256215 11.09829282 23.91792303 27.16990756 26.7890625 45.31640625 C28.19951754 58.11334731 26.42064172 71.73882662 20.2890625 83.15625 C18.77992526 78.62883828 18.51476969 74.09198202 20.2890625 69.65625 C20.6190625 69.16125 20.9490625 68.66625 21.2890625 68.15625 C20.6290625 68.15625 19.9690625 68.15625 19.2890625 68.15625 C19.2890625 67.49625 19.2890625 66.83625 19.2890625 66.15625 C19.9490625 65.82625 20.6090625 65.49625 21.2890625 65.15625 C20.63848685 60.30678913 20.63848685 60.30678913 19.6015625 55.53125 C19.20712607 52.53353313 20.07011199 50.8809629 21.2890625 48.15625 C21.2890625 47.16625 21.2890625 46.17625 21.2890625 45.15625 C20.6290625 45.15625 19.9690625 45.15625 19.2890625 45.15625 C19.4540625 44.393125 19.6190625 43.63 19.7890625 42.84375 C20.84722907 37.15610469 20.05401304 30.40322009 17.265625 25.2734375 C16.28656611 23.89164517 15.28908492 22.5229473 14.2890625 21.15625 C14.2890625 20.16625 14.2890625 19.17625 14.2890625 18.15625 C13.6290625 18.15625 12.9690625 18.15625 12.2890625 18.15625 C12.2890625 17.16625 12.2890625 16.17625 12.2890625 15.15625 C11.6290625 15.15625 10.9690625 15.15625 10.2890625 15.15625 C9.9590625 15.81625 9.6290625 16.47625 9.2890625 17.15625 C5.2890625 13.15625 5.2890625 13.15625 5.1640625 10.53125 C5.2053125 9.7475 5.2465625 8.96375 5.2890625 8.15625 C4.6290625 8.15625 3.9690625 8.15625 3.2890625 8.15625 C2.7940625 7.16625 2.7940625 7.16625 2.2890625 6.15625 C0.6390625 6.81625 -1.0109375 7.47625 -2.7109375 8.15625 C-3.3709375 7.49625 -4.0309375 6.83625 -4.7109375 6.15625 C-4.2159375 5.66125 -4.2159375 5.66125 -3.7109375 5.15625 C-3.67029918 3.49007885 -3.6682165 1.82236905 -3.7109375 0.15625 C-4.7009375 0.15625 -5.6909375 0.15625 -6.7109375 0.15625 C-7.0409375 0.81625 -7.3709375 1.47625 -7.7109375 2.15625 C-8.2059375 0.67125 -8.2059375 0.67125 -8.7109375 -0.84375 C-12.15627754 -1.70508501 -14.31473396 -1.78063374 -17.7109375 -0.84375 C-18.3709375 -1.17375 -19.0309375 -1.50375 -19.7109375 -1.84375 C-20.11822978 -4.16531597 -20.45532427 -6.5006287 -20.7109375 -8.84375 C-21.70673828 -8.70066406 -21.70673828 -8.70066406 -22.72265625 -8.5546875 C-27.85572701 -7.91024358 -30.92013806 -7.80766024 -35.7109375 -9.84375 C-39.05073245 -10.02497918 -42.36944177 -9.96054014 -45.7109375 -9.84375 C-46.0409375 -9.18375 -46.3709375 -8.52375 -46.7109375 -7.84375 C-47.3709375 -8.17375 -48.0309375 -8.50375 -48.7109375 -8.84375 C-50.40192823 -8.78185017 -52.09082512 -8.64790585 -53.7734375 -8.46875 C-55.12115234 -8.33339844 -55.12115234 -8.33339844 -56.49609375 -8.1953125 C-58.67943579 -8.07108918 -58.67943579 -8.07108918 -59.7109375 -6.84375 C-61.71052114 -6.80294217 -63.71139004 -6.80120644 -65.7109375 -6.84375 C-49.73534711 -22.81934039 -15.15216111 -10.3052162 0 0 Z " fill="#B129A2" transform="translate(252.7109375,151.84375)"/>
<path d="M0 0 C0.33 0 0.66 0 1 0 C0.99777939 0.56217224 0.99555878 1.12434448 0.99327087 1.70355225 C0.97096928 7.60949054 0.95599078 13.51541667 0.94506836 19.42138672 C0.94007162 21.61898282 0.93327199 23.81657564 0.92456055 26.01416016 C0.91228911 29.19174003 0.90672495 32.36927557 0.90234375 35.546875 C0.89718246 36.5130072 0.89202118 37.4791394 0.88670349 38.47454834 C0.88621949 44.49850458 1.23893195 50.39623992 1.88233948 56.38702393 C1.99479534 58.88441616 1.62012544 60.6118603 1 63 C1.44062427 64.55913202 1.89130741 66.11618242 2.39453125 67.65625 C3.52916575 72.04838355 3.90714236 76.58736821 4.4375 81.0859375 C4.7159375 82.52839844 4.7159375 82.52839844 5 84 C5.66 84.33 6.32 84.66 7 85 C7.33 85.99 7.66 86.98 8 88 C8.99 88.66 9.98 89.32 11 90 C10.67 91.65 10.34 93.3 10 95 C10.66 95 11.32 95 12 95 C13.76462683 98.08809695 14 99.23312136 14 103 C15.98 103.66 17.96 104.32 20 105 C20.33 106.65 20.66 108.3 21 110 C21.66 110 22.32 110 23 110 C23.474375 110.495 23.94875 110.99 24.4375 111.5 C25.99969942 113.34626591 25.99969942 113.34626591 29 113 C29.33 114.98 29.66 116.96 30 119 C31.175625 119.185625 31.175625 119.185625 32.375 119.375 C35 120 35 120 37 122 C40.58343976 122.16677282 40.58343976 122.16677282 44 122 C44.33 123.65 44.66 125.3 45 127 C45.61746094 127.10957031 46.23492187 127.21914063 46.87109375 127.33203125 C52.12369854 128.31539562 57.07087394 129.5740772 62.08984375 131.4140625 C65.41749882 132.43481559 68.97989219 131.99082044 72.44303894 131.97447205 C94.65155425 131.87819654 116.80678919 132.15480125 139 133 C139 133.33 139 133.66 139 134 C101.10015456 135.09956342 101.10015456 135.09956342 83.42456055 135.23217773 C81.50622877 135.24938356 79.58805015 135.28163911 77.66992188 135.31445312 C55.2770396 135.39922877 35.99707222 127.70765151 20 112 C19.29875 111.32324219 18.5975 110.64648438 17.875 109.94921875 C5.29238436 96.89967011 -1.11631256 78.43446893 -1.12939453 60.4855957 C-1.13254669 59.23772781 -1.13569885 57.98985992 -1.13894653 56.70417786 C-1.137157 55.36137862 -1.13510611 54.01857972 -1.1328125 52.67578125 C-1.13348706 51.28289269 -1.13445835 49.89000425 -1.13571167 48.49711609 C-1.13718002 45.58978139 -1.13506094 42.68247757 -1.13037109 39.77514648 C-1.12465832 36.05286627 -1.12796803 32.33065793 -1.13394356 28.60838032 C-1.13755889 25.73704996 -1.13640638 22.86573662 -1.13381577 19.99440575 C-1.13315002 18.62170592 -1.13396259 17.24900454 -1.13629532 15.87630653 C-1.13883951 13.95961157 -1.13427313 12.04291115 -1.12939453 10.1262207 C-1.12859894 9.03702835 -1.12780334 7.947836 -1.12698364 6.82563782 C-1.01681072 4.37407181 -0.7108595 2.33687509 0 0 Z " fill="#FCC447" transform="translate(83,200)"/>
<path d="M0 0 C0.66 0 1.32 0 2 0 C2.00586624 0.88790222 2.01173248 1.77580444 2.01777649 2.69061279 C2.07595266 11.10468152 2.14816977 19.51849181 2.23571491 27.9323082 C2.28022735 32.25677333 2.31952419 36.58114839 2.34643555 40.90576172 C2.37266119 45.08809309 2.41319561 49.27007419 2.46318626 53.45218658 C2.47972596 55.03872533 2.49131979 56.62532448 2.49761391 58.21193695 C2.56999983 74.79884365 4.8954132 88.27506393 16.5078125 100.66796875 C27.20285844 110.6757155 40.06298891 113.10761528 54.23999023 113.20532227 C55.13834091 113.21522186 56.03669159 113.22512146 56.96226501 113.23532104 C59.91101509 113.2667326 62.85978124 113.29161246 65.80859375 113.31640625 C67.86125592 113.33699337 69.91391402 113.35799029 71.96656799 113.37937927 C77.3537973 113.43441838 82.74106372 113.48390735 88.12835693 113.53222656 C93.63182861 113.58257464 99.13524679 113.63819108 104.63867188 113.69335938 C115.42573549 113.80071864 126.21284567 113.90221247 137 114 C137 114.33 137 114.66 137 115 C127.45793699 115.83628287 118.00432862 116.12927472 108.43199921 116.07516479 C106.11157828 116.06216212 103.79121577 116.05582808 101.47076416 116.05102539 C96.56381586 116.03973781 91.6569176 116.02042797 86.75 116 C81.01651633 115.97635333 75.28305852 115.9560429 69.54953766 115.94406128 C67.26384347 115.93758352 64.97823256 115.92509029 62.69256592 115.91235352 C61.30253166 115.90872405 59.91249664 115.90537195 58.52246094 115.90234375 C57.30782166 115.89710693 56.09318237 115.89187012 54.84173584 115.88647461 C52.05157791 115.80289693 52.05157791 115.80289693 50 117 C47.6505947 116.39239518 45.31470912 115.72870472 43 115 C43 115.99 43 116.98 43 118 C40.525 118.99 40.525 118.99 38 120 C38 119.01 38 118.02 38 117 C36.3219363 114.64730934 35.22642532 114.05762934 32.40625 113.33984375 C31.4471875 113.20707031 30.488125 113.07429688 29.5 112.9375 C25.8214531 112.41835024 24.15458608 112.10305739 21 110 C19.8125 107.875 19.8125 107.875 19 106 C17.68 106 16.36 106 15 106 C14.505 103.525 14.505 103.525 14 101 C12.35 100.67 10.7 100.34 9 100 C9.33 98.68 9.66 97.36 10 96 C9.030625 95.855625 8.06125 95.71125 7.0625 95.5625 C4 95 4 95 3 94 C3.04125 92.700625 3.0825 91.40125 3.125 90.0625 C3.17858419 86.55642893 2.76544339 84.02942696 1.51049805 80.77001953 C-0.84664157 73.22275437 -0.37071538 65.43574727 -0.29296875 57.6171875 C-0.28736317 55.94996525 -0.28309762 54.28273802 -0.28010559 52.61550903 C-0.26873248 48.25893147 -0.23933159 43.90266106 -0.20599365 39.54620361 C-0.17512893 35.08813632 -0.16156544 30.63001868 -0.14648438 26.171875 C-0.11445348 17.4477768 -0.0633501 8.72392677 0 0 Z " fill="#ECA951" transform="translate(109,192)"/>
<path d="M0 0 C0.33 0 0.66 0 1 0 C2.14623949 4.81420585 1.56750602 7.38968817 0 12 C-0.1707917 14.69362907 -0.09321243 17.29683942 0 20 C-0.66 20 -1.32 20 -2 20 C-2.39012425 21.76756294 -2.7616098 23.53924783 -3.125 25.3125 C-3.43824219 26.79169922 -3.43824219 26.79169922 -3.7578125 28.30078125 C-4.30424763 31.22270283 -4.30424763 31.22270283 -2 34 C-1.34 33.34 -0.68 32.68 0 32 C0 36 0 36 -1.5 37.75 C-1.995 38.1625 -2.49 38.575 -3 39 C-2.34 39.33 -1.68 39.66 -1 40 C-0.69140625 41.85546875 -0.69140625 41.85546875 -0.5625 44.1875 C-0.20191728 48.38094344 0.92551256 51.30200064 3 55 C3 55.66 3 56.32 3 57 C4.485 56.505 4.485 56.505 6 56 C5.979375 56.7425 5.95875 57.485 5.9375 58.25 C5.99328688 60.70462279 6.3069904 62.66109261 7 65 C7.66 65 8.32 65 9 65 C9 65.66 9 66.32 9 67 C10.485 66.505 10.485 66.505 12 66 C12.99 69.465 12.99 69.465 14 73 C15.98 72.01 15.98 72.01 18 71 C18.42410156 71.58910156 18.84820312 72.17820312 19.28515625 72.78515625 C21.08081198 75.08596349 22.77113609 77.11105935 25 79 C28.85060367 79.20370117 28.85060367 79.20370117 32 78 C31.505 79.98 31.505 79.98 31 82 C30.34 82 29.68 82 29 82 C29 82.66 29 83.32 29 84 C29.60328125 84.13277344 30.2065625 84.26554687 30.828125 84.40234375 C31.62734375 84.57894531 32.4265625 84.75554687 33.25 84.9375 C34.43335938 85.19853516 34.43335938 85.19853516 35.640625 85.46484375 C37.7691703 85.94764293 39.8846556 86.46276968 42 87 C42.70640625 87.17660156 43.4128125 87.35320312 44.140625 87.53515625 C46.09375 88.0234375 48.046875 88.51171875 50 89 C50.495 87.515 50.495 87.515 51 86 C51 86.66 51 87.32 51 88 C51.66 88 52.32 88 53 88 C53 89.32 53 90.64 53 92 C58.61 92.33 64.22 92.66 70 93 C70 93.33 70 93.66 70 94 C49.6498032 94.57474405 34.64265867 91.32674532 18 79 C16.515 78.01 16.515 78.01 15 77 C15 76.34 15 75.68 15 75 C13.515 74.505 13.515 74.505 12 74 C-0.19178084 60.34703195 -6.38337136 43.64717609 -6.22265625 25.39453125 C-5.63959376 16.50538552 -3.70049985 8.09549127 0 0 Z " fill="#EE7062" transform="translate(152,178)"/>
<path d="M0 0 C4.18950911 2.99250651 6.87969875 6.3595189 9.5625 10.6875 C9.95453613 11.31180908 10.34657227 11.93611816 10.75048828 12.5793457 C19.37860364 26.54274695 21.48442528 39.93149386 21.6875 56.125 C21.72092066 57.99894837 21.75470842 59.87289022 21.78881836 61.74682617 C22.33965575 95.82328043 22.08272143 129.9204602 22 164 C21.67 164 21.34 164 21 164 C20.71386542 152.91586379 20.43524094 141.83156568 20.16588497 130.74700832 C20.04054815 125.5985739 19.91274217 120.45022679 19.77905273 115.30200195 C19.64983878 110.32246789 19.5274249 105.34280666 19.40948677 100.36299324 C19.36361375 98.474601 19.31539757 96.58626399 19.26466179 94.69799614 C18.97150179 83.72247059 19.0141367 72.94282832 20 62 C19.34 62 18.68 62 18 62 C17.855625 60.906875 17.71125 59.81375 17.5625 58.6875 C17.11711896 55.06877013 17.11711896 55.06877013 16 52 C16.32742188 50.97777344 16.65484375 49.95554688 16.9921875 48.90234375 C18.42220322 44.3347053 17.77982822 40.23285529 17.125 35.5625 C17.02058594 34.73556641 16.91617187 33.90863281 16.80859375 33.05664062 C16.55164893 31.03611996 16.27757949 29.01778939 16 27 C15.34 27 14.68 27 14 27 C11.8614515 24.8614515 11.57344937 23.86724686 11 21 C10.01 21 9.02 21 8 21 C8 18.36 8 15.72 8 13 C7.01 12.67 6.02 12.34 5 12 C4.6278958 10.67696283 4.29369827 9.34262065 4 8 C3.34 7.67 2.68 7.34 2 7 C1.26924352 4.6859378 0.59861742 2.35171131 0 0 Z " fill="#8717C7" transform="translate(320,98)"/>
<path d="M0 0 C1.07204178 0.00424484 2.14408356 0.00848969 3.24861145 0.01286316 C6.63085386 0.02948886 10.01247274 0.06711029 13.39453125 0.10546875 C15.70506944 0.12053642 18.01561709 0.13422115 20.32617188 0.14648438 C25.95333327 0.17933931 31.58013769 0.22937472 37.20703125 0.29296875 C37.20703125 0.62296875 37.20703125 0.95296875 37.20703125 1.29296875 C35.24080811 1.31484253 35.24080811 1.31484253 33.23486328 1.3371582 C28.33306731 1.3954933 23.4317139 1.47272227 18.53027344 1.55541992 C16.41608915 1.58850449 14.30182002 1.61658671 12.1875 1.6394043 C9.13374966 1.67325483 6.08076531 1.7255842 3.02734375 1.78125 C1.62828293 1.79083488 1.62828293 1.79083488 0.20095825 1.8006134 C-7.31672786 1.96592092 -14.44393452 3.06027927 -20.79296875 7.29296875 C-20.79296875 7.95296875 -20.79296875 8.61296875 -20.79296875 9.29296875 C-20.13296875 9.95296875 -19.47296875 10.61296875 -18.79296875 11.29296875 C-20.11296875 11.62296875 -21.43296875 11.95296875 -22.79296875 12.29296875 C-22.79296875 11.30296875 -22.79296875 10.31296875 -22.79296875 9.29296875 C-24.77296875 10.28296875 -26.75296875 11.27296875 -28.79296875 12.29296875 C-28.79296875 11.63296875 -28.79296875 10.97296875 -28.79296875 10.29296875 C-33.26091926 11.69718177 -35.56232587 13.97730895 -38.79296875 17.29296875 C-39.78296875 17.62296875 -40.77296875 17.95296875 -41.79296875 18.29296875 C-42.18484375 19.53046875 -42.57671875 20.76796875 -42.98046875 22.04296875 C-44.21260841 25.7862626 -45.57656597 27.14582754 -48.98046875 29.10546875 C-50.05361328 29.64107422 -50.05361328 29.64107422 -51.1484375 30.1875 C-51.69113281 30.55230469 -52.23382813 30.91710937 -52.79296875 31.29296875 C-52.79296875 32.28296875 -52.79296875 33.27296875 -52.79296875 34.29296875 C-53.39109375 34.41671875 -53.98921875 34.54046875 -54.60546875 34.66796875 C-57.05528223 35.2477286 -57.05528223 35.2477286 -59.79296875 37.29296875 C-59.23837322 28.57168212 -53.85890383 23.93569906 -47.79296875 18.29296875 C-34.00647929 6.28242813 -18.28119932 -0.27886898 0 0 Z " fill="#D93189" transform="translate(154.79296875,75.70703125)"/>
<path d="M0 0 C0.33 0 0.66 0 1 0 C1.19448926 5.60059882 1.37282096 11.20141228 1.53710938 16.80297852 C1.59499808 18.70285352 1.65706722 20.60260647 1.72363281 22.50219727 C2.63069319 48.59392653 -1.9624971 68.94429449 -19.73828125 88.95703125 C-21.3125 90.625 -21.3125 90.625 -24 93 C-24.99 93 -25.98 93 -27 93 C-26.75 90.625 -26.75 90.625 -26 88 C-24.0625 86.9375 -24.0625 86.9375 -22 86 C-21.505 85.01 -21.505 85.01 -21 84 C-20 82 -20 82 -18.0625 81.0625 C-15.09587997 79.5342412 -14.3603084 78.04449974 -13 75 C-12.65157349 72.65824975 -12.43968895 70.35196743 -12.30859375 67.98828125 C-12 66 -12 66 -10 64 C-7.875 63.375 -7.875 63.375 -6 63 C-5.49645133 60.56318413 -4.99703244 58.12564561 -4.5 55.6875 C-4.35691406 54.99720703 -4.21382813 54.30691406 -4.06640625 53.59570312 C-3.47374956 50.67475227 -3 47.98891878 -3 45 C-2.34 45 -1.68 45 -1 45 C-1 44.01 -1 43.02 -1 42 C-2.485 41.505 -2.485 41.505 -4 41 C-3.51391769 40.58397018 -3.02783539 40.16794037 -2.52702332 39.73930359 C0.04092678 36.81436801 -0.51740545 33.11244537 -0.48828125 29.39453125 C-0.47033005 28.55532639 -0.45237885 27.71612152 -0.43388367 26.85148621 C-0.37971437 24.17187521 -0.34586427 21.49244298 -0.3125 18.8125 C-0.27933271 16.99541779 -0.2448436 15.1783592 -0.20898438 13.36132812 C-0.12398428 8.90768095 -0.05720498 4.45408741 0 0 Z " fill="#D3328F" transform="translate(340,224)"/>
<path d="M0 0 C0.33 0 0.66 0 1 0 C1.01030746 0.94513962 1.02061493 1.89027924 1.03123474 2.86405945 C1.13084759 11.96186486 1.23368265 21.05962947 1.33933926 30.15736675 C1.3935074 34.82974936 1.44670343 39.50213794 1.49731445 44.17456055 C1.55623652 49.59948561 1.61869824 55.02436197 1.68359375 60.44921875 C1.69414165 61.34524685 1.70468956 62.24127495 1.7155571 63.16445541 C1.83458403 73.00620547 2.00186379 82.8438569 2.29345703 92.68212891 C2.33104362 93.96185876 2.33104362 93.96185876 2.36938953 95.26744175 C2.4895601 99.29351686 2.61848961 103.31905522 2.760849 107.34440613 C2.80688711 108.7788361 2.85283638 110.21326893 2.89868164 111.64770508 C2.94223282 112.88023514 2.985784 114.1127652 3.03065491 115.38264465 C2.99701103 119.35270543 2.52543523 123.0665117 2 127 C2 128.32 2 129.64 2 131 C1.04668277 133.39761329 -0.08143068 135.66337127 -1.22265625 137.9765625 C-1.47917969 138.64429688 -1.73570312 139.31203125 -2 140 C-1.67 140.66 -1.34 141.32 -1 142 C-1.4375 144.125 -1.4375 144.125 -2 146 C-3.32 145.67 -4.64 145.34 -6 145 C-6.54399434 139.83205382 -5.06127323 136.2640969 -2.97265625 131.66015625 C-0.43587611 124.72221538 -0.83227334 117.29353234 -0.79467773 110.00610352 C-0.78477814 108.81514572 -0.77487854 107.62418793 -0.76467896 106.3971405 C-0.73860301 103.14973714 -0.7166953 99.90233847 -0.69667697 96.65489316 C-0.67471678 93.25427262 -0.64737747 89.85369531 -0.62062073 86.45310974 C-0.57082884 80.02182693 -0.52584028 73.59051994 -0.48259836 67.15919012 C-0.43311011 59.83386656 -0.37823519 52.50858641 -0.32291877 45.18330491 C-0.20930621 30.12224378 -0.10242255 15.0611417 0 0 Z " fill="#B8339C" transform="translate(313,142)"/>
<path d="M0 0 C1.875 0.25 1.875 0.25 4 1 C8.96324577 2.31380035 13.90674054 2.08900842 19 2 C19 2.66 19 3.32 19 4 C21.64 4 24.28 4 27 4 C27 4.99 27 5.98 27 7 C28.32 7 29.64 7 31 7 C31.33 6.01 31.66 5.02 32 4 C32.66 4.33 33.32 4.66 34 5 C33.67 6.98 33.34 8.96 33 11 C35.64738916 12.4606285 36.89448334 13 40 13 C42.79239557 15.79239557 42.54799086 18.12563597 43 22 C43.3274322 24.00097458 43.65876419 26.00133314 44 28 C44.66 28 45.32 28 46 28 C46 28.66 46 29.32 46 30 C47.32 29.67 48.64 29.34 50 29 C48.35 31.97 46.7 34.94 45 38 C44.67 38 44.34 38 44 38 C43.87625 37.26136719 43.7525 36.52273437 43.625 35.76171875 C41.48764296 25.24859382 36.77874194 17.52551338 28.1875 11 C20.3540486 6.0052764 12.59903586 4.56205832 3.41015625 5.08984375 C0.76015891 4.99105941 -0.7430508 4.34579106 -3 3 C-1.75 1.4375 -1.75 1.4375 0 0 Z " fill="#C82E9A" transform="translate(206,164)"/>
<path d="M0 0 C0.99 0 1.98 0 3 0 C8.94954881 10.13626834 5.74610019 25.19527571 3 36 C1.8772644 39.22786485 0.62024282 41.98299612 -1 45 C-2.50913724 40.47258828 -2.77429281 35.93573202 -1 31.5 C-0.67 31.005 -0.34 30.51 0 30 C-0.66 30 -1.32 30 -2 30 C-2 29.34 -2 28.68 -2 28 C-1.34 27.67 -0.68 27.34 0 27 C-0.65057565 22.15053913 -0.65057565 22.15053913 -1.6875 17.375 C-2.08193643 14.37728313 -1.21895051 12.7247129 0 10 C0 9.01 0 8.02 0 7 C-0.66 7 -1.32 7 -2 7 C-1.125 2.25 -1.125 2.25 0 0 Z " fill="#C71BA6" transform="translate(274,190)"/>
<path d="M0 0 C39.27 0 78.54 0 119 0 C119 0.33 119 0.66 119 1 C114.81824436 1.96098701 110.67139732 2.32197552 106.3984375 2.5546875 C105.24207291 2.61775589 105.24207291 2.61775589 104.06234741 2.68209839 C93.45430784 3.19555064 82.83564352 3.14932637 72.21777344 3.13037109 C68.58264129 3.12493667 64.94762877 3.13038747 61.3125 3.13671875 C58.99218723 3.13605914 56.67187453 3.13478043 54.3515625 3.1328125 C53.26936432 3.13483673 52.18716614 3.13686096 51.07217407 3.13894653 C50.06947479 3.13579437 49.06677551 3.13264221 48.03369141 3.12939453 C47.15532623 3.12859894 46.27696106 3.12780334 45.37197876 3.12698364 C43.10074322 3.00539328 41.1919158 2.57101532 39 2 C37.65789145 1.89174894 36.31193981 1.82527136 34.96582031 1.79467773 C33.79505951 1.7647599 33.79505951 1.7647599 32.60064697 1.73423767 C31.76821472 1.71752518 30.93578247 1.70081268 30.078125 1.68359375 C29.21813904 1.66281265 28.35815308 1.64203156 27.47210693 1.62062073 C24.73148402 1.55536261 21.99076725 1.49635083 19.25 1.4375 C17.3893133 1.39429219 15.52863602 1.35067718 13.66796875 1.30664062 C9.11207477 1.19970558 4.5560866 1.09837149 0 1 C0 0.67 0 0.34 0 0 Z " fill="#9D37AF" transform="translate(153,75)"/>
<path d="M0 0 C0.33 0 0.66 0 1 0 C0.97679687 0.90621094 0.95359375 1.81242188 0.9296875 2.74609375 C0.7334372 15.99298878 2.69627603 24.2717165 10.1875 35.1875 C17.60329791 42.60329791 25.8425159 45.18502635 36 47 C36 47.66 36 48.32 36 49 C35.195625 49.12375 34.39125 49.2475 33.5625 49.375 C32.716875 49.58125 31.87125 49.7875 31 50 C30.505 50.99 30.505 50.99 30 52 C27.6875 52.3125 27.6875 52.3125 25 52 C23.98648336 50.34151823 22.98879205 48.67334039 22 47 C19.75005299 45.417453 17.46161631 44.25403095 15 43 C15 42.34 15 41.68 15 41 C13.35 41 11.7 41 10 41 C9.505 38.525 9.505 38.525 9 36 C7.02 36 5.04 36 3 36 C2.67 35.34 2.34 34.68 2 34 C2.99 34 3.98 34 5 34 C4.360625 33.113125 3.72125 32.22625 3.0625 31.3125 C1.11246325 28.1806228 0.5187041 26.54447802 0 23 C-1.06848815 19.03132973 -2.25526015 15.10402994 -3.5 11.1875 C-3.7371875 10.43855469 -3.974375 9.68960938 -4.21875 8.91796875 C-4.93376395 6.80749163 -4.93376395 6.80749163 -7 5 C-5 5 -3 5 -1 5 C-0.67 3.35 -0.34 1.7 0 0 Z M-3 8 C-2 10 -2 10 -2 10 Z " fill="#EC5470" transform="translate(175,196)"/>
<path d="M0 0 C-0.33 0.99 -0.66 1.98 -1 3 C-0.01 3 0.98 3 2 3 C2 3.66 2 4.32 2 5 C1.11699219 5.14695312 0.23398438 5.29390625 -0.67578125 5.4453125 C-13.80745764 7.89956781 -24.39854656 12.69884769 -32.30859375 23.84375 C-32.66050781 24.3903125 -33.01242188 24.936875 -33.375 25.5 C-34.179375 26.7375 -34.179375 26.7375 -35 28 C-35.66 28 -36.32 28 -37 28 C-37 28.66 -37 29.32 -37 30 C-37.99 30.33 -38.98 30.66 -40 31 C-40 30.34 -40 29.68 -40 29 C-39.34 29 -38.68 29 -38 29 C-38.33 26.69 -38.66 24.38 -39 22 C-38.01 22 -37.02 22 -36 22 C-35.67 21.34 -35.34 20.68 -35 20 C-34.01 20 -33.02 20 -32 20 C-32 18.35 -32 16.7 -32 15 C-26.25 12 -26.25 12 -24 12 C-23.67 11.01 -23.34 10.02 -23 9 C-20.76588635 6.20735794 -18.39807081 5.04556025 -15 4 C-14.34 4.33 -13.68 4.66 -13 5 C-12.01 4.67 -11.02 4.34 -10 4 C-9.67 3.34 -9.34 2.68 -9 2 C-5.93853104 0.03191281 -3.59835033 -0.19990835 0 0 Z " fill="#DF3983" transform="translate(152,100)"/>
<path d="M0 0 C1.11118018 22.13715148 1.12308277 44.24395414 1.06866455 66.40246582 C1.0582444 71.11010272 1.05382784 75.8177454 1.04882812 80.52539062 C1.03825602 89.6836084 1.02129915 98.8418013 1 108 C0.67 108 0.34 108 0 108 C-0.28613458 96.91586379 -0.56475906 85.83156568 -0.83411503 74.74700832 C-0.95945185 69.5985739 -1.08725783 64.45022679 -1.22094727 59.30200195 C-1.35016122 54.32246789 -1.4725751 49.34280666 -1.59051323 44.36299324 C-1.63638625 42.474601 -1.68460243 40.58626399 -1.73533821 38.69799614 C-2.02849821 27.72247059 -1.9858633 16.94282832 -1 6 C-1.66 6 -2.32 6 -3 6 C-3.33 5.01 -3.66 4.02 -4 3 C-1.125 0 -1.125 0 0 0 Z " fill="#D808E4" transform="translate(341,154)"/>
<path d="M0 0 C4.19768093 0.34060751 8.36201359 0.41578402 12.57104492 0.3894043 C13.33610352 0.3889209 14.10116211 0.3884375 14.8894043 0.38793945 C18.73605537 0.3642048 22.44544491 0.19069586 26.25854492 -0.3605957 C33.85117329 -1.33985696 41.72352628 0.27122646 49.25854492 1.2644043 C49.25854492 1.5944043 49.25854492 1.9244043 49.25854492 2.2644043 C29.61611802 3.51412813 10.03925134 3.2042101 -9.62432861 2.86950684 C-13.93608129 2.79760137 -18.24795056 2.73352742 -22.55981445 2.66870117 C-30.95382407 2.54139468 -39.34766973 2.40572486 -47.74145508 2.2644043 C-47.74145508 1.9344043 -47.74145508 1.6044043 -47.74145508 1.2644043 C-42.8898623 0.94884413 -38.03767396 0.64638536 -33.18457031 0.35498047 C-31.54080324 0.2545574 -29.89723409 0.1508284 -28.25390625 0.04345703 C-18.72753019 -0.57649961 -9.52672263 -0.79043235 0 0 Z " fill="#BF29C7" transform="translate(201.741455078125,101.735595703125)"/>
<path d="M0 0 C1.32 0.66 2.64 1.32 4 2 C4 1.34 4 0.68 4 0 C4.99 0.33 5.98 0.66 7 1 C7 1.66 7 2.32 7 3 C7.99 3.33 8.98 3.66 10 4 C5.50564353 6.26091393 1.2725971 6.27098934 -3.64575195 6.22705078 C-4.5047963 6.22734283 -5.36384064 6.22763489 -6.24891663 6.22793579 C-9.07880878 6.2265462 -11.90843527 6.21100245 -14.73828125 6.1953125 C-16.70411536 6.19158105 -18.66995133 6.1887347 -20.63578796 6.18673706 C-25.80283772 6.179111 -30.96977456 6.15947127 -36.13677979 6.1373291 C-41.41213453 6.11684859 -46.68750756 6.10773062 -51.96289062 6.09765625 C-62.30864329 6.07622446 -72.65431224 6.04210085 -83 6 C-83 5.67 -83 5.34 -83 5 C-55.61 4.34 -28.22 3.68 0 3 C0 2.01 0 1.02 0 0 Z " fill="#D79063" transform="translate(265,329)"/>
<path d="M0 0 C5.99539065 -0.28549479 10.45240768 0.17512555 16.0546875 2.34375 C19.37828235 3.46496272 22.95639388 2.99093136 26.44303894 2.97447205 C48.65155425 2.87819654 70.80678919 3.15480125 93 4 C93 4.33 93 4.66 93 5 C55.10015456 6.09956342 55.10015456 6.09956342 37.42456055 6.23217773 C35.50622877 6.24938356 33.58805015 6.28163911 31.66992188 6.31445312 C20.68232017 6.35605032 10.39193489 4.64504314 0 1 C0 0.67 0 0.34 0 0 Z " fill="#F0C34A" transform="translate(129,329)"/>
<path d="M0 0 C0.66 0.66 1.32 1.32 2 2 C1.05125 1.835 0.1025 1.67 -0.875 1.5 C-3.99489668 1.0370885 -6.97352861 0.99173343 -10.125 1.0625 C-14.0128578 1.11503862 -16.39493284 0.44202687 -20 -1 C-23.33996527 -1.17606018 -26.65855557 -1.11678835 -30 -1 C-30.33 -0.34 -30.66 0.32 -31 1 C-31.66 0.67 -32.32 0.34 -33 0 C-34.69099073 0.06189983 -36.37988762 0.19584415 -38.0625 0.375 C-39.41021484 0.51035156 -39.41021484 0.51035156 -40.78515625 0.6484375 C-42.96849829 0.77266082 -42.96849829 0.77266082 -44 2 C-45.99958364 2.04080783 -48.00045254 2.04254356 -50 2 C-38.73532864 -9.26467136 -13.28693435 -4.53942645 0 0 Z " fill="#BE36A2" transform="translate(237,143)"/>
<path d="M0 0 C0.33 0 0.66 0 1 0 C1.19448926 5.60059882 1.37282096 11.20141228 1.53710938 16.80297852 C1.59499808 18.70285352 1.65706722 20.60260647 1.72363281 22.50219727 C2.20975432 36.48555601 2.62870884 50.82882131 -3 64 C-3.99 64.495 -3.99 64.495 -5 65 C-4.47594437 58.30992818 -3.89536075 51.6512513 -3 45 C-2.34 45 -1.68 45 -1 45 C-1 44.01 -1 43.02 -1 42 C-1.99 41.67 -2.98 41.34 -4 41 C-3.51391769 40.58397018 -3.02783539 40.16794037 -2.52702332 39.73930359 C0.04092678 36.81436801 -0.51740545 33.11244537 -0.48828125 29.39453125 C-0.46135445 28.13572395 -0.46135445 28.13572395 -0.43388367 26.85148621 C-0.37971437 24.17187521 -0.34586427 21.49244298 -0.3125 18.8125 C-0.27933271 16.99541779 -0.2448436 15.1783592 -0.20898438 13.36132812 C-0.12398428 8.90768095 -0.05720498 4.45408741 0 0 Z " fill="#C41CB1" transform="translate(340,224)"/>
<path d="M0 0 C0.33 0 0.66 0 1 0 C2.14623949 4.81420585 1.56750602 7.38968817 0 12 C-0.1707917 14.69362907 -0.09321243 17.29683942 0 20 C-0.66 20 -1.32 20 -2 20 C-2.39012425 21.76756294 -2.7616098 23.53924783 -3.125 25.3125 C-3.43824219 26.79169922 -3.43824219 26.79169922 -3.7578125 28.30078125 C-4.30424763 31.22270283 -4.30424763 31.22270283 -2 34 C-1.34 33.34 -0.68 32.68 0 32 C0 33.32 0 34.64 0 36 C-1.32 36.66 -2.64 37.32 -4 38 C-8.75601812 29.9090847 -5.70777062 19.224074 -3.94921875 10.54296875 C-2.9438144 6.79028668 -1.61211995 3.52679462 0 0 Z " fill="#E85F6E" transform="translate(152,178)"/>
<path d="M0 0 C6.01448373 0 8.99551932 2.07643012 13.33203125 6.14453125 C15.25028699 8.2784223 16.32229472 10.20446572 17 13 C16.236875 13.144375 15.47375 13.28875 14.6875 13.4375 C11.91827092 13.9632594 11.91827092 13.9632594 9 15 C8.67 12.36 8.34 9.72 8 7 C7.236875 6.855625 6.47375 6.71125 5.6875 6.5625 C3 6 3 6 0 5 C-0.75 3 -0.75 3 -1 1 C-0.67 0.67 -0.34 0.34 0 0 Z " fill="#880BCB" transform="translate(305,89)"/>
<path d="M0 0 C0.66 0.33 1.32 0.66 2 1 C0.24288298 6.30603101 -1.27422765 10.00775529 -6.25 12.875 C-6.95640625 13.22304687 -7.6628125 13.57109375 -8.390625 13.9296875 C-8.92171875 14.28289062 -9.4528125 14.63609375 -10 15 C-10 15.99 -10 16.98 -10 18 C-10.598125 18.12375 -11.19625 18.2475 -11.8125 18.375 C-14.26231348 18.95475985 -14.26231348 18.95475985 -17 21 C-17 17.06120283 -16.86886156 14.98916546 -14.22265625 11.9765625 C-8.60625 7 -8.60625 7 -6 7 C-5.67 6.01 -5.34 5.02 -5 4 C-4.01 3.67 -3.02 3.34 -2 3 C-1.34 2.01 -0.68 1.02 0 0 Z " fill="#F21D88" transform="translate(112,92)"/>
<path d="M0 0 C9.51413738 8.6492158 16.22082169 20.20505811 18 33 C16.515 32.505 16.515 32.505 15 32 C15 31.34 15 30.68 15 30 C14.34 30 13.68 30 13 30 C12.90203125 29.34773438 12.8040625 28.69546875 12.703125 28.0234375 C11.72172473 22.28732211 10.4159415 18.66845338 7 14 C7 13.01 7 12.02 7 11 C6.34 11 5.68 11 5 11 C4.34 9.35 3.68 7.7 3 6 C2.34 6 1.68 6 1 6 C0.67 4.02 0.34 2.04 0 0 Z " fill="#B529A5" transform="translate(260,159)"/>
<path d="M0 0 C0.33 0 0.66 0 1 0 C1 4.95 1 9.9 1 15 C1.66 15 2.32 15 3 15 C2.62875 15.763125 2.2575 16.52625 1.875 17.3125 C1.58625 18.199375 1.2975 19.08625 1 20 C1.66 20.99 2.32 21.98 3 23 C0 25 0 25 -2.1875 24.625 C-3.0846875 24.315625 -3.0846875 24.315625 -4 24 C-4.11044961 17.26257354 -3.70132913 10.70019789 -3 4 C-2.01 4 -1.02 4 0 4 C0 2.68 0 1.36 0 0 Z " fill="#E51A93" transform="translate(253,199)"/>
<path d="M0 0 C1.32 0.33 2.64 0.66 4 1 C4.309375 2.134375 4.61875 3.26875 4.9375 4.4375 C5.62924531 7.78775099 5.62924531 7.78775099 7 9 C7.90000394 14.40002362 8 19.54256492 8 25 C8.99 24.67 9.98 24.34 11 24 C11 25.32 11 26.64 11 28 C11.66 28.33 12.32 28.66 13 29 C11.34385343 29.38218767 9.67542976 29.71395102 8 30 C5.64222417 27.64222417 6.02625861 22.94202777 5.9375 19.7578125 C5.9375 17.8384286 5.96633178 15.91908859 6 14 C5.34 14 4.68 14 4 14 C3.32471777 12.42032193 2.66010306 10.83608097 2 9.25 C1.62875 8.36828125 1.2575 7.4865625 0.875 6.578125 C0 4 0 4 0 0 Z " fill="#9603D4" transform="translate(307,120)"/>
<path d="M0 0 C0.66 0.33 1.32 0.66 2 1 C2.625 4.0625 2.625 4.0625 3 7 C3.78375 7.12375 4.5675 7.2475 5.375 7.375 C8 8 8 8 10 10 C13.58343976 10.16677282 13.58343976 10.16677282 17 10 C17.33 11.65 17.66 13.3 18 15 C20.64 15.66 23.28 16.32 26 17 C20.14172748 18.95275751 14.63991201 16.00745601 9.375 13.375 C4.1860047 10.45934756 1.04779925 7.0668055 -2 2 C-1.34 1.34 -0.68 0.68 0 0 Z " fill="#F7DE34" transform="translate(110,312)"/>
<path d="M0 0 C-0.33 0.99 -0.66 1.98 -1 3 C-0.01 3 0.98 3 2 3 C2 3.66 2 4.32 2 5 C1.04738281 5.19335938 0.09476563 5.38671875 -0.88671875 5.5859375 C-2.76810547 5.97652344 -2.76810547 5.97652344 -4.6875 6.375 C-6.54955078 6.75785156 -6.54955078 6.75785156 -8.44921875 7.1484375 C-11.92997378 7.886794 -11.92997378 7.886794 -14.8125 9.15625 C-17 10 -17 10 -19.3125 9.125 C-19.869375 8.75375 -20.42625 8.3825 -21 8 C-20 6 -20 6 -17.5625 4.8125 C-15 4 -15 4 -13 5 C-12.01 4.67 -11.02 4.34 -10 4 C-9.67 3.34 -9.34 2.68 -9 2 C-5.93853104 0.03191281 -3.59835033 -0.19990835 0 0 Z " fill="#CC3A98" transform="translate(152,100)"/>
<path d="M0 0 C1.07204178 0.00424484 2.14408356 0.00848969 3.24861145 0.01286316 C6.63085386 0.02948886 10.01247274 0.06711029 13.39453125 0.10546875 C15.70506944 0.12053642 18.01561709 0.13422115 20.32617188 0.14648438 C25.95333327 0.17933931 31.58013769 0.22937472 37.20703125 0.29296875 C37.20703125 0.62296875 37.20703125 0.95296875 37.20703125 1.29296875 C36.66103271 1.3010556 36.11503418 1.30914246 35.55249023 1.31747437 C29.84157015 1.4038978 24.13098218 1.50341529 18.42041016 1.61035156 C16.29253745 1.64850518 14.16460325 1.68338121 12.03662109 1.71484375 C8.9682017 1.76079107 5.90020078 1.81873563 2.83203125 1.87890625 C1.88900146 1.89045746 0.94597168 1.90200867 -0.02563477 1.91390991 C-5.60544983 2.03705281 -10.42429878 2.76842132 -15.79296875 4.29296875 C-17.6204123 4.54784903 -19.4542098 4.76473884 -21.29296875 4.91796875 C-22.14890625 4.99273437 -23.00484375 5.0675 -23.88671875 5.14453125 C-24.8303125 5.21800781 -24.8303125 5.21800781 -25.79296875 5.29296875 C-18.08995822 0.15762839 -8.98987816 -0.13713532 0 0 Z " fill="#BD24A8" transform="translate(154.79296875,75.70703125)"/>
<path d="M0 0 C0.495 0.99 0.495 0.99 1 2 C-15.5 2 -32 2 -49 2 C-49 1.67 -49 1.34 -49 1 C-44.11173625 0.68531152 -39.22291345 0.38274524 -34.33325195 0.09057617 C-32.67582848 -0.01007318 -31.01858995 -0.1138246 -29.36157227 -0.22094727 C-8.10882264 -1.589812 -8.10882264 -1.589812 0 0 Z " fill="#C233AC" transform="translate(203,102)"/>
<path d="M0 0 C2.97 0 5.94 0 9 0 C7.83348049 3.49955852 6.66065993 3.89208004 3.6796875 5.7890625 C-2.62946299 10.33751983 -5.85690259 17.08796721 -9 24 C-10.15941038 20.52176885 -9.70820884 18.54104422 -9 15 C-8.34 15 -7.68 15 -7 15 C-6.34 13.02 -5.68 11.04 -5 9 C-4.34 9 -3.68 9 -3 9 C-3 8.34 -3 7.68 -3 7 C-2.01 6.67 -1.02 6.34 0 6 C0 4.02 0 2.04 0 0 Z " fill="#DE3284" transform="translate(186,171)"/>
<path d="M0 0 C0.33 0 0.66 0 1 0 C1.25941423 7.78242678 1.25941423 7.78242678 -1 12 C-0.70194993 14.19747131 -0.70194993 14.19747131 0 16 C-4.37038743 18.91359162 -9.02406302 20.37992749 -14 22 C-12.700625 20.5459375 -12.700625 20.5459375 -11.375 19.0625 C-6.46982872 13.32042745 -1.90249208 7.41971912 0 0 Z " fill="#DE288B" transform="translate(249,215)"/>
<path d="M0 0 C1 2 1 2 0.25 4.5625 C-1 7 -1 7 -4 8 C-4.04125 8.7425 -4.0825 9.485 -4.125 10.25 C-5.34358629 14.07984263 -7.70028271 14.86893258 -11 17 C-11.95231597 19.12119128 -11.95231597 19.12119128 -12 21 C-14.31 21 -16.62 21 -19 21 C-15.85044537 17.14179558 -12.75946197 13.69826419 -8.9375 10.5 C-5.2189514 7.35243775 -2.65913993 4.07180801 0 0 Z " fill="#E03484" transform="translate(307,282)"/>
<path d="M0 0 C1.32 0.66 2.64 1.32 4 2 C4.08160748 3.89510699 4.13946459 5.79124504 4.1875 7.6875 C4.22230469 8.74324219 4.25710938 9.79898438 4.29296875 10.88671875 C3.96229249 14.40070518 3.1900188 16.24843792 1 19 C0.01 19 -0.98 19 -2 19 C-2 18.34 -2 17.68 -2 17 C-1.34 16.67 -0.68 16.34 0 16 C-0.65862334 11.12128699 -0.65862334 11.12128699 -1.6875 6.3125 C-2.06240603 3.53819536 -1.46870279 2.3326456 0 0 Z " fill="#D414A1" transform="translate(274,201)"/>
<path d="M0 0 C1.5 1.375 1.5 1.375 3 3 C3 3.66 3 4.32 3 5 C3.845625 4.525625 4.69125 4.05125 5.5625 3.5625 C9.17293971 1.92139104 12.07526737 1.42050707 16 1 C18.00097458 0.6725678 20.00133314 0.34123581 22 0 C16.01047581 4.90944606 7.72603028 7.68465183 0 8 C-2.4375 7.0625 -2.4375 7.0625 -4 6 C-2.68 4.02 -1.36 2.04 0 0 Z " fill="#E54E76" transform="translate(222,264)"/>
<path d="M0 0 C0.33 0 0.66 0 1 0 C1 8.25 1 16.5 1 25 C1.66 25 2.32 25 3 25 C3.48066535 26.89545392 3.95946743 28.79138039 4.4375 30.6875 C4.83775391 32.27111328 4.83775391 32.27111328 5.24609375 33.88671875 C5.89897932 36.5828317 6.47941193 39.2757576 7 42 C4.61142019 39.85828458 3.43055525 38.0841719 2.375 35.0625 C2.01535156 34.05896484 2.01535156 34.05896484 1.6484375 33.03515625 C0.29706361 28.79379603 -0.11880656 25.18699152 -0.09765625 20.703125 C-0.09443359 19.49785156 -0.09121094 18.29257812 -0.08789062 17.05078125 C-0.07951172 15.79652344 -0.07113281 14.54226562 -0.0625 13.25 C-0.05798828 11.98027344 -0.05347656 10.71054688 -0.04882812 9.40234375 C-0.03704556 6.26818164 -0.02059416 3.13411459 0 0 Z " fill="#F2BC47" transform="translate(109,240)"/>
<path d="M0 0 C1.62723299 0.45034123 3.25173664 0.91055354 4.875 1.375 C5.77992188 1.63023438 6.68484375 1.88546875 7.6171875 2.1484375 C10 3 10 3 12 5 C11.01 6.485 11.01 6.485 10 8 C7.03 7.505 7.03 7.505 4 7 C3.67 7.66 3.34 8.32 3 9 C2.01 8.34 1.02 7.68 0 7 C-0.1875 3.375 -0.1875 3.375 0 0 Z " fill="#8E02D9" transform="translate(288,80)"/>
<path d="M0 0 C0.66 0.33 1.32 0.66 2 1 C1.67 1.66 1.34 2.32 1 3 C0.01 3 -0.98 3 -2 3 C-2.33 3.99 -2.66 4.98 -3 6 C-5.71225811 7.97255135 -8.45369859 9.70419777 -11.40234375 11.30078125 C-14.4067081 13.26604214 -16.45915058 15.4829044 -18.8125 18.1875 C-19.60269531 19.08855469 -20.39289063 19.98960937 -21.20703125 20.91796875 C-21.79871094 21.60503906 -22.39039063 22.29210937 -23 23 C-23 18.24477177 -19.84529297 16.02450095 -16.72265625 12.64453125 C-11.65381975 7.721142 -5.85964258 3.90642839 0 0 Z " fill="#D23C89" transform="translate(182,146)"/>
<path d="M0 0 C1.32 0.66 2.64 1.32 4 2 C4 1.34 4 0.68 4 0 C4.99 0.33 5.98 0.66 7 1 C7 1.66 7 2.32 7 3 C7.99 3.33 8.98 3.66 10 4 C6.48172372 5.59245395 3.77302648 6.24261382 -0.08203125 6.1953125 C-1.01337891 6.18886719 -1.94472656 6.18242187 -2.90429688 6.17578125 C-3.86400391 6.15902344 -4.82371094 6.14226562 -5.8125 6.125 C-6.79154297 6.11597656 -7.77058594 6.10695313 -8.77929688 6.09765625 C-11.18645061 6.07417182 -13.59309743 6.0413284 -16 6 C-16 5.67 -16 5.34 -16 5 C-10.72 4.34 -5.44 3.68 0 3 C0 2.01 0 1.02 0 0 Z " fill="#E66361" transform="translate(265,329)"/>
<path d="M0 0 C-0.99 0.66 -1.98 1.32 -3 2 C-3 2.66 -3 3.32 -3 4 C-2.34 4.66 -1.68 5.32 -1 6 C-2.32 6.33 -3.64 6.66 -5 7 C-5 6.01 -5 5.02 -5 4 C-6.98 4.99 -8.96 5.98 -11 7 C-11 6.34 -11 5.68 -11 5 C-11.99 5.33 -12.98 5.66 -14 6 C-14 4.68 -14 3.36 -14 2 C-9.53202599 -0.57767731 -4.97760384 -1.72301671 0 0 Z " fill="#D12397" transform="translate(137,81)"/>
<path d="M0 0 C0.99 0.33 1.98 0.66 3 1 C3.6875 3.0625 3.6875 3.0625 4 5 C3.01 5.33 2.02 5.66 1 6 C1 6.66 1 7.32 1 8 C-2.3 8 -5.6 8 -9 8 C-9 7.34 -9 6.68 -9 6 C-9.66 5.67 -10.32 5.34 -11 5 C-7.12315913 3.80712589 -4.08378077 3 0 3 C0 2.01 0 1.02 0 0 Z " fill="#F63377" transform="translate(227,240)"/>
<path d="M0 0 C0.33 0 0.66 0 1 0 C0.81784605 9.19049499 -1.3289924 16.60138483 -5 25 C-6.56344797 20.3096561 -7.00212533 16.17428637 -4.91796875 11.65234375 C-4.04217006 10.14051834 -3.13498418 8.6462574 -2.19140625 7.17578125 C-0.88079297 4.78230061 -0.40901437 2.68445063 0 0 Z " fill="#C62E95" transform="translate(278,210)"/>
<path d="M0 0 C1.98 0 3.96 0 6 0 C0.01233982 6.14523019 0.01233982 6.14523019 -5.75 6.25 C-10.20521748 6.22417265 -13.17187743 5.41776162 -17 3 C-17 2.34 -17 1.68 -17 1 C-14.19560664 1.49489295 -11.63432024 2.12686849 -8.9375 3.0625 C-5.87880621 4.20269345 -5.87880621 4.20269345 -2 4 C-1.34 2.68 -0.68 1.36 0 0 Z " fill="#A62FAC" transform="translate(284,150)"/>
<path d="M0 0 C1.32 0.33 2.64 0.66 4 1 C4 1.99 4 2.98 4 4 C5.98 4.66 7.96 5.32 10 6 C10.33 7.65 10.66 9.3 11 11 C11.66 11 12.32 11 13 11 C14.5078125 12.96875 14.5078125 12.96875 16.125 15.5 C16.66382812 16.3353125 17.20265625 17.170625 17.7578125 18.03125 C18.16773437 18.6809375 18.57765625 19.330625 19 20 C10.52899144 16.43943751 4.33220192 7.79796345 0 0 Z " fill="#F6E13F" transform="translate(93,299)"/>
<path d="M0 0 C0.33 0.66 0.66 1.32 1 2 C1.99 1.67 2.98 1.34 4 1 C4.66 3.31 5.32 5.62 6 8 C7.32 7.34 8.64 6.68 10 6 C10.20496094 6.55429688 10.40992188 7.10859375 10.62109375 7.6796875 C10.89050781 8.40414062 11.15992188 9.12859375 11.4375 9.875 C11.70433594 10.59429687 11.97117188 11.31359375 12.24609375 12.0546875 C12.97916854 14.03648845 12.97916854 14.03648845 14 16 C11.50638429 14.79618552 9.31856917 13.54571278 7 12 C7 11.34 7 10.68 7 10 C6.01 9.67 5.02 9.34 4 9 C0.85706726 5.6774711 0 4.70264718 0 0 Z " fill="#F0865B" transform="translate(160,243)"/>
<path d="M0 0 C1.53166168 4.08443115 0.63081652 7.79455657 0 12 C0.928125 11.95875 1.85625 11.9175 2.8125 11.875 C6 12 6 12 9 14 C9 14.99 9 15.98 9 17 C6.69 17.33 4.38 17.66 2 18 C-1.7258549 13.34268137 -1.50156459 8.69082895 -1 3 C-0.67 2.01 -0.34 1.02 0 0 Z " fill="#AD1EB3" transform="translate(263,132)"/>
<path d="M0 0 C0.99 0.33 1.98 0.66 3 1 C2.67 1.33 2.34 1.66 2 2 C1.95936168 3.66617115 1.957279 5.33388095 2 7 C0.68 7.33 -0.64 7.66 -2 8 C-2 8.66 -2 9.32 -2 10 C-2.99 10.495 -2.99 10.495 -4 11 C-4.72159424 12.64363134 -5.39351421 14.31050386 -6 16 C-8 14 -8 14 -8.1875 11 C-8 8 -8 8 -7 6 C-6.21625 6.061875 -5.4325 6.12375 -4.625 6.1875 C-3.75875 6.125625 -2.8925 6.06375 -2 6 C0.2773501 3.18490007 0.2773501 3.18490007 0 0 Z " fill="#F71D88" transform="translate(185,170)"/>
<path d="M0 0 C3.80726834 3.56163813 4.90159494 5.49932279 5.25 10.8125 C5.22040465 14.81527043 4.0714985 17.54750249 2 21 C1.67 21 1.34 21 1 21 C1 19.35 1 17.7 1 16 C1.66 16 2.32 16 3 16 C3 15.01 3 14.02 3 13 C2.34 13 1.68 13 1 13 C1.33 10.03 1.66 7.06 2 4 C1.34 4 0.68 4 0 4 C0 2.68 0 1.36 0 0 Z " fill="#991EB5" transform="translate(289,129)"/>
<path d="M0 0 C0.33 0 0.66 0 1 0 C1.19932928 5.16927255 0.57384434 9.41508764 -0.875 14.375 C-1.22304688 15.59960938 -1.57109375 16.82421875 -1.9296875 18.0859375 C-3 21 -3 21 -5 22 C-4.7219098 13.90757513 -3.48645046 7.32965398 0 0 Z " fill="#CB2A98" transform="translate(340,267)"/>
<path d="M0 0 C1 3 1 3 0.22265625 5.04296875 C-0.16019531 5.75066406 -0.54304688 6.45835937 -0.9375 7.1875 C-1.31777344 7.90292969 -1.69804687 8.61835938 -2.08984375 9.35546875 C-2.39019531 9.89816406 -2.69054687 10.44085938 -3 11 C-3.66 11 -4.32 11 -5 11 C-5 11.99 -5 12.98 -5 14 C-5.66 14 -6.32 14 -7 14 C-7.33 11.69 -7.66 9.38 -8 7 C-7.34 7 -6.68 7 -6 7 C-6 6.01 -6 5.02 -6 4 C-5.01 4 -4.02 4 -3 4 C-2.67 3.01 -2.34 2.02 -2 1 C-1.34 0.67 -0.68 0.34 0 0 Z " fill="#E61A93" transform="translate(272,229)"/>
<path d="M0 0 C0.33 0 0.66 0 1 0 C0.67 5.94 0.34 11.88 0 18 C-2.91521216 15.08478784 -3.35129158 14.63164082 -4.0625 10.9375 C-4.63899392 7.98914538 -4.79708396 7.20291604 -7 5 C-5 5 -3 5 -1 5 C-0.67 3.35 -0.34 1.7 0 0 Z M-3 8 C-2 10 -2 10 -2 10 Z " fill="#EF4677" transform="translate(175,196)"/>
<path d="M0 0 C0.66 0 1.32 0 2 0 C2 0.99 2 1.98 2 3 C1.01 3 0.02 3 -1 3 C-0.896875 3.721875 -0.79375 4.44375 -0.6875 5.1875 C-1.1310565 9.17950847 -2.95495873 10.52147804 -6 13 C-6.99 13 -7.98 13 -9 13 C-8.75 10.625 -8.75 10.625 -8 8 C-6.0625 6.9375 -6.0625 6.9375 -4 6 C-2.8499169 4.03327085 -2.8499169 4.03327085 -2 2 C-1.34 1.34 -0.68 0.68 0 0 Z " fill="#E63386" transform="translate(322,304)"/>
<path d="M0 0 C0.33 0 0.66 0 1 0 C2.14623949 4.81420585 1.56750602 7.38968817 0 12 C-0.1707917 14.69362907 -0.09321243 17.29683942 0 20 C-0.99 19.67 -1.98 19.34 -3 19 C-3.31461385 11.90370975 -3.44572039 6.31715405 0 0 Z " fill="#EE4A72" transform="translate(152,178)"/>
<path d="M0 0 C2.7920301 0.1404983 5.58349796 0.28715383 8.375 0.4375 C9.1690625 0.47681641 9.963125 0.51613281 10.78125 0.55664062 C16.7734375 0.88671875 16.7734375 0.88671875 19 2 C19.33 1.34 19.66 0.68 20 0 C20 0.66 20 1.32 20 2 C20.61875 1.79375 21.2375 1.5875 21.875 1.375 C22.926875 1.189375 22.926875 1.189375 24 1 C24.66 1.66 25.32 2.32 26 3 C19.35204039 3.91299547 13.12531102 3.98938155 6.4375 3.5625 C5.52419922 3.51029297 4.61089844 3.45808594 3.66992188 3.40429688 C1.44612919 3.27622505 -0.77701936 3.14136041 -3 3 C-2.01 2.67 -1.02 2.34 0 2 C0 1.34 0 0.68 0 0 Z " fill="#9F20CA" transform="translate(254,101)"/>
<path d="M0 0 C1.77049689 -0.05410687 3.54146849 -0.09284119 5.3125 -0.125 C6.29863281 -0.14820312 7.28476562 -0.17140625 8.30078125 -0.1953125 C11 0 11 0 14 2 C15.175625 2.268125 16.35125 2.53625 17.5625 2.8125 C21 4 21 4 22.4375 6.625 C22.623125 7.40875 22.80875 8.1925 23 9 C19.96523591 7.86196347 17.15333142 6.54430592 14.3125 5 C9.73355457 2.65361879 5.05100643 1.78663215 0 1 C0 0.67 0 0.34 0 0 Z " fill="#8A29BB" transform="translate(272,104)"/>
<path d="M0 0 C1.65 0.33 3.3 0.66 5 1 C2.375 4.875 2.375 4.875 -1 6 C-1 6.66 -1 7.32 -1 8 C-1.66 8 -2.32 8 -3 8 C-3.66 7.01 -4.32 6.02 -5 5 C-6.97536745 5.34786708 -6.97536745 5.34786708 -9 6 C-9.33 6.66 -9.66 7.32 -10 8 C-10.99 7.34 -11.98 6.68 -13 6 C-13 5.01 -13 4.02 -13 3 C-12.14535156 2.95101563 -11.29070312 2.90203125 -10.41015625 2.8515625 C-9.30542969 2.77679688 -8.20070313 2.70203125 -7.0625 2.625 C-5.40927734 2.52058594 -5.40927734 2.52058594 -3.72265625 2.4140625 C-2.37494141 2.20910156 -2.37494141 2.20910156 -1 2 C-0.67 1.34 -0.34 0.68 0 0 Z " fill="#F93A6F" transform="translate(277,304)"/>
<path d="M0 0 C2.31 0 4.62 0 7 0 C2.90953513 4.62400376 -2.48945402 8.24472701 -8 11 C-8 9.35 -8 7.7 -8 6 C-2.25 3 -2.25 3 0 3 C0 2.01 0 1.02 0 0 Z " fill="#E32A89" transform="translate(128,109)"/>
<path d="M0 0 C0.33 1.32 0.66 2.64 1 4 C-2.13762783 6.65491585 -5.07756693 7.83161568 -9 9 C-9.99 9.33 -10.98 9.66 -12 10 C-12.33 9.01 -12.66 8.02 -13 7 C-12 5.5625 -12 5.5625 -10 4 C-8.08984375 3.68359375 -8.08984375 3.68359375 -5.9375 3.5 C-4.638125 3.335 -3.33875 3.17 -2 3 C-1.34 2.01 -0.68 1.02 0 0 Z " fill="#EF327C" transform="translate(311,316)"/>
<path d="M0 0 C4.03717996 2.92713223 6.59374897 5.95727243 9.3125 10.125 C10.00988281 11.17945312 10.70726562 12.23390625 11.42578125 13.3203125 C13 16 13 16 13 18 C12.34 18 11.68 18 11 18 C10.525625 17.195625 10.05125 16.39125 9.5625 15.5625 C8.20016328 12.7081924 8.20016328 12.7081924 5 12 C4.6278958 10.67696283 4.29369827 9.34262065 4 8 C3.34 7.67 2.68 7.34 2 7 C1.26924352 4.6859378 0.59861742 2.35171131 0 0 Z " fill="#871EC5" transform="translate(320,98)"/>
<path d="M0 0 C5.76452212 0.4866155 9.85164541 2.13295915 14.875 4.9375 C15.55046875 5.29779297 16.2259375 5.65808594 16.921875 6.02929688 C21.86100867 8.72201734 21.86100867 8.72201734 23 11 C19.13351728 9.95902388 15.50538557 8.96301592 12 7 C12 6.34 12 5.68 12 5 C11.30132812 4.80664062 10.60265625 4.61328125 9.8828125 4.4140625 C8.51769531 4.02347656 8.51769531 4.02347656 7.125 3.625 C5.76761719 3.24214844 5.76761719 3.24214844 4.3828125 2.8515625 C2 2 2 2 0 0 Z " fill="#8632B9" transform="translate(288,79)"/>
<path d="M0 0 C2.92813253 0.41830465 3.86899896 0.85153216 5.875 3.125 C6.57625 3.74375 7.2775 4.3625 8 5 C11.19954954 4.85650653 11.19954954 4.85650653 14 4 C13.67 5.32 13.34 6.64 13 8 C10.10191822 9.22611152 8.97278914 8.9905595 5.9375 7.9375 C2.5111863 5.67759096 1.50476264 3.7619066 0 0 Z " fill="#F97353" transform="translate(170,252)"/>
<path d="M0 0 C0.99 0.99 1.98 1.98 3 3 C2.01 4.32 1.02 5.64 0 7 C0.33 7.66 0.66 8.32 1 9 C0.21625 8.95875 -0.5675 8.9175 -1.375 8.875 C-4.16116119 8.71271266 -4.16116119 8.71271266 -6 11 C-5.63076923 4.6 -5.63076923 4.6 -2.4375 1.5625 C-1.633125 1.046875 -0.82875 0.53125 0 0 Z " fill="#F32980" transform="translate(101,102)"/>
<path d="M0 0 C2.00720923 0.28674418 4.0085944 0.61866701 6 1 C6 1.66 6 2.32 6 3 C6.66 3 7.32 3 8 3 C7.34 4.32 6.68 5.64 6 7 C3.03 6.505 3.03 6.505 0 6 C-0.38218767 4.34385343 -0.71395102 2.67542976 -1 1 C-0.67 0.67 -0.34 0.34 0 0 Z " fill="#8F03DA" transform="translate(305,89)"/>
<path d="M0 0 C0.66 0.99 1.32 1.98 2 3 C1.3125 4.9375 1.3125 4.9375 0 7 C-2.625 7.75 -2.625 7.75 -5 8 C-5.625 5.625 -5.625 5.625 -6 3 C-3.8614515 0.8614515 -2.86724686 0.57344937 0 0 Z " fill="#DE1E9A" transform="translate(334,287)"/>
<path d="M0 0 C0.33 0 0.66 0 1 0 C1 4.62 1 9.24 1 14 C-0.32 14.33 -1.64 14.66 -3 15 C-3 11.37 -3 7.74 -3 4 C-2.01 4 -1.02 4 0 4 C0 2.68 0 1.36 0 0 Z " fill="#D7239F" transform="translate(253,199)"/>
<path d="M0 0 C0.598125 0.165 1.19625 0.33 1.8125 0.5 C4.11344336 1.1114124 4.11344336 1.1114124 7 1 C9.39763185 3.39763185 9.34280586 4.33273498 9.625 7.625 C9.69976562 8.44226563 9.77453125 9.25953125 9.8515625 10.1015625 C9.92503906 11.04128906 9.92503906 11.04128906 10 12 C9.34 12 8.68 12 8 12 C7.34 9.69 6.68 7.38 6 5 C5.34 5 4.68 5 4 5 C4 4.34 4 3.68 4 3 C2.68 2.34 1.36 1.68 0 1 C0 0.67 0 0.34 0 0 Z " fill="#D316A2" transform="translate(239,176)"/>
<path d="M0 0 C0.66 0 1.32 0 2 0 C3.09039672 3.92542817 2.95963655 5.49328197 1 9 C0.30269194 11.3243602 -0.36912152 13.65673706 -1 16 C-1.33 16 -1.66 16 -2 16 C-2.2358396 10.22192976 -1.86783046 5.48675196 0 0 Z " fill="#E75B6D" transform="translate(85,129)"/>
<path d="M0 0 C-6.6752501 3.89389589 -14.46340841 4.41313426 -22 5 C-15.47004862 0.64669908 -7.71411784 -0.43664818 0 0 Z " fill="#C03299" transform="translate(151,76)"/>
<path d="M0 0 C0.33 0.66 0.66 1.32 1 2 C1.99 2 2.98 2 4 2 C4.268125 2.763125 4.53625 3.52625 4.8125 4.3125 C5.94424112 6.87380884 6.91223401 8.19692938 9 10 C8.34 10 7.68 10 7 10 C6.67 10.66 6.34 11.32 6 12 C2 8 2 8 1.875 5.375 C1.91625 4.59125 1.9575 3.8075 2 3 C1.34 3 0.68 3 0 3 C0 2.01 0 1.02 0 0 Z " fill="#C011B1" transform="translate(256,157)"/>
<path d="M0 0 C3.7602985 0.58107632 6.53035032 1.65199496 9.8125 3.5625 C10.60269531 4.01753906 11.39289063 4.47257812 12.20703125 4.94140625 C12.79871094 5.29074219 13.39039063 5.64007813 14 6 C14 6.66 14 7.32 14 8 C8.24857558 6.70886391 4.62256741 4.6791863 0 1 C0 0.67 0 0.34 0 0 Z " fill="#EE8161" transform="translate(174,259)"/>
<path d="M0 0 C2.64 0 5.28 0 8 0 C7.01 0.495 7.01 0.495 6 1 C6 1.66 6 2.32 6 3 C4.8553125 3.1546875 4.8553125 3.1546875 3.6875 3.3125 C0.82940576 4.04364039 -0.15742885 4.76951913 -2 7 C-2.66 6.67 -3.32 6.34 -4 6 C-4 5.34 -4 4.68 -4 4 C-3.01 4 -2.02 4 -1 4 C-0.67 2.68 -0.34 1.36 0 0 Z " fill="#DF1E90" transform="translate(184,145)"/>
<path d="M0 0 C-1.33333333 0.66666667 -2.66666667 1.33333333 -4 2 C-4.598125 2.3403125 -5.19625 2.680625 -5.8125 3.03125 C-8.35393517 4.15674272 -10.48556409 4.40675506 -13.25 4.625 C-14.14203125 4.69976562 -15.0340625 4.77453125 -15.953125 4.8515625 C-16.62859375 4.90054688 -17.3040625 4.94953125 -18 5 C-13.61274907 0.61274907 -6.00012433 -0.47369403 0 0 Z " fill="#C33496" transform="translate(205,140)"/>
<path d="M0 0 C1.485 0.99 1.485 0.99 3 2 C2.67 3.65 2.34 5.3 2 7 C2.66 7 3.32 7 4 7 C4.66 8.65 5.32 10.3 6 12 C1.125 10.25 1.125 10.25 0 8 C-0.13415472 5.3276379 -0.04318541 2.67749512 0 0 Z " fill="#FBDD25" transform="translate(91,288)"/>
<path d="M0 0 C1.4606285 2.64738916 2 3.89448334 2 7 C2.66 7.33 3.32 7.66 4 8 C4.4140625 10.06640625 4.4140625 10.06640625 4.625 12.5625 C4.69976562 13.38878906 4.77453125 14.21507812 4.8515625 15.06640625 C4.90054688 15.70449219 4.94953125 16.34257812 5 17 C0.42832218 11.38930449 -0.23901086 7.05082028 0 0 Z " fill="#F7DC3C" transform="translate(86,277)"/>
<path d="M0 0 C0.66 0 1.32 0 2 0 C2 2.75 2 2.75 1 6 C-1.50431059 7.74719343 -4.15951732 8.90004088 -7 10 C-5.15014033 6.06048404 -2.92434659 3.21678125 0 0 Z " fill="#F52283" transform="translate(166,160)"/>
<path d="M0 0 C1.32 1.65 2.64 3.3 4 5 C2.68 5.99 1.36 6.98 0 8 C-1.32 7.34 -2.64 6.68 -4 6 C-2.68 4.02 -1.36 2.04 0 0 Z " fill="#F94E6A" transform="translate(222,264)"/>
<path d="M0 0 C3.63 0 7.26 0 11 0 C11 1.98 11 3.96 11 6 C10.01 5.67 9.02 5.34 8 5 C8 4.34 8 3.68 8 3 C6.865625 2.87625 5.73125 2.7525 4.5625 2.625 C3.386875 2.41875 2.21125 2.2125 1 2 C0.67 1.34 0.34 0.68 0 0 Z " fill="#9502DB" transform="translate(285,105)"/>
<path d="M0 0 C0.99 0.33 1.98 0.66 3 1 C3.6875 3.0625 3.6875 3.0625 4 5 C3.01 5.33 2.02 5.66 1 6 C1 6.66 1 7.32 1 8 C-0.32 7.34 -1.64 6.68 -3 6 C-2.67 5.01 -2.34 4.02 -2 3 C-1.34 3 -0.68 3 0 3 C0 2.01 0 1.02 0 0 Z " fill="#F92676" transform="translate(227,240)"/>
<path d="M0 0 C0.33 0.66 0.66 1.32 1 2 C0.01 3.32 -0.98 4.64 -2 6 C-1.67 6.66 -1.34 7.32 -1 8 C-6.2734375 11.22265625 -6.2734375 11.22265625 -8 12 C-8.66 11.67 -9.32 11.34 -10 11 C-9.44570312 10.45730469 -8.89140625 9.91460937 -8.3203125 9.35546875 C-7.23363281 8.28232422 -7.23363281 8.28232422 -6.125 7.1875 C-5.40570313 6.47980469 -4.68640625 5.77210938 -3.9453125 5.04296875 C-1.84641063 2.95600806 -1.84641063 2.95600806 0 0 Z " fill="#DD3987" transform="translate(245,225)"/>
<path d="M0 0 C2 1 4 2 6 3 C6 3.66 6 4.32 6 5 C6.66 5 7.32 5 8 5 C8.99 7.97 9.98 10.94 11 14 C8.55206649 11.55206649 6.48536981 9.16302016 4.375 6.4375 C3.45847656 5.25994141 3.45847656 5.25994141 2.5234375 4.05859375 C1 2 1 2 0 0 Z " fill="#BC3A99" transform="translate(237,176)"/>
<path d="M0 0 C0.99 0 1.98 0 3 0 C2.34 2.97 1.68 5.94 1 9 C0.01 8.67 -0.98 8.34 -2 8 C-1.125 1.125 -1.125 1.125 0 0 Z " fill="#FA287C" transform="translate(157,171)"/>
<path d="M0 0 C0.99 0.66 1.98 1.32 3 2 C2.34 3.65 1.68 5.3 1 7 C-1.31 7 -3.62 7 -6 7 C-4.02 4.69 -2.04 2.38 0 0 Z " fill="#F32886" transform="translate(294,296)"/>
<path d="M0 0 C2.5558408 2.22247026 3.26439123 3.74230403 4 7 C4.66 7.66 5.32 8.32 6 9 C0.125 8.125 0.125 8.125 -1 7 C-0.71269945 4.66055264 -0.38063221 2.3260857 0 0 Z " fill="#FAC921" transform="translate(113,279)"/>
<path d="M0 0 C0.33 0.66 0.66 1.32 1 2 C0.0625 4.625 0.0625 4.625 -1 7 C-0.34 7.66 0.32 8.32 1 9 C0.01 9 -0.98 9 -2 9 C-2.33 9.99 -2.66 10.98 -3 12 C-3.33 12 -3.66 12 -4 12 C-4.50423019 6.70558305 -3.18923033 4.18586481 0 0 Z " fill="#EA3D7A" transform="translate(95,108)"/>
<path d="M0 0 C0.86625 0.556875 0.86625 0.556875 1.75 1.125 C1.75 1.785 1.75 2.445 1.75 3.125 C-0.5 4.25 -0.5 4.25 -3.25 5.125 C-5.5625 4.25 -5.5625 4.25 -7.25 3.125 C-5.61609754 -0.14280491 -3.47460528 -1.35123539 0 0 Z " fill="#DF2595" transform="translate(138.25,104.875)"/>
<path d="M0 0 C0 5.28 0 10.56 0 16 C-0.33 16 -0.66 16 -1 16 C-1 12.7 -1 9.4 -1 6 C-1.66 6 -2.32 6 -3 6 C-3.33 5.01 -3.66 4.02 -4 3 C-1.125 0 -1.125 0 0 0 Z " fill="#970DD0" transform="translate(341,154)"/>
<path d="M0 0 C0.33 0 0.66 0 1 0 C0.67 5.61 0.34 11.22 0 17 C-0.33 17 -0.66 17 -1 17 C-1.16894443 15.25021843 -1.33506309 13.50016388 -1.5 11.75 C-1.5928125 10.77546875 -1.685625 9.8009375 -1.78125 8.796875 C-1.95800168 6.53697847 -2 4.26679807 -2 2 C-1.34 1.34 -0.68 0.68 0 0 Z " fill="#F24A70" transform="translate(110,143)"/>
<path d="M0 0 C1.875 0.25 1.875 0.25 4 1 C5.66519519 1.34060811 7.33157466 1.67558396 9 2 C9 2.33 9 2.66 9 3 C6.69 3 4.38 3 2 3 C1.67 3.66 1.34 4.32 1 5 C-0.32 4.34 -1.64 3.68 -3 3 C-1.75 1.4375 -1.75 1.4375 0 0 Z " fill="#DD2199" transform="translate(206,164)"/>
<path d="M0 0 C0.66 0.33 1.32 0.66 2 1 C2 1.99 2 2.98 2 4 C3.32 4 4.64 4 6 4 C6 4.66 6 5.32 6 6 C4.35 6.66 2.7 7.32 1 8 C0.34 7.34 -0.32 6.68 -1 6 C-0.67 5.67 -0.34 5.34 0 5 C0.04063832 3.33382885 0.042721 1.66611905 0 0 Z " fill="#C20FB0" transform="translate(249,152)"/>
<path d="M0 0 C1.98 0.495 1.98 0.495 4 1 C4 2.65 4 4.3 4 6 C3.34 6 2.68 6 2 6 C2 6.66 2 7.32 2 8 C1.01 8.33 0.02 8.66 -1 9 C-1 8.34 -1 7.68 -1 7 C-0.34 7 0.32 7 1 7 C0.67 4.69 0.34 2.38 0 0 Z " fill="#F8257F" transform="translate(113,122)"/>
<path d="M0 0 C0.33 0 0.66 0 1 0 C1.21192221 5.19209404 0.5912689 9.126739 -1 14 C-1.33 14 -1.66 14 -2 14 C-2.3690205 4.58997722 -2.3690205 4.58997722 0 0 Z " fill="#BC3A98" transform="translate(340,267)"/>
<path d="M0 0 C1.875 0.3125 1.875 0.3125 4 1 C4.66 1.99 5.32 2.98 6 4 C5.67 4.99 5.34 5.98 5 7 C3.68 6.67 2.36 6.34 1 6 C0.67 4.02 0.34 2.04 0 0 Z " fill="#C711AB" transform="translate(232,144)"/>
<path d="M0 0 C0 0.66 0 1.32 0 2 C-0.99 2.33 -1.98 2.66 -3 3 C-3.9590625 4.051875 -3.9590625 4.051875 -4.9375 5.125 C-5.618125 5.74375 -6.29875 6.3625 -7 7 C-9.12890625 6.6171875 -9.12890625 6.6171875 -11 6 C-9.54550599 4.9944239 -8.08627557 3.99569565 -6.625 3 C-5.40683594 2.1646875 -5.40683594 2.1646875 -4.1640625 1.3125 C-2 0 -2 0 0 0 Z " fill="#CC368A" transform="translate(123,84)"/>
<path d="M0 0 C0.66 0 1.32 0 2 0 C2 0.99 2 1.98 2 3 C1.01 3 0.02 3 -1 3 C-1 4.32 -1 5.64 -1 7 C-2.65 7 -4.3 7 -6 7 C-5.34 6.67 -4.68 6.34 -4 6 C-3.3162955 4.67532254 -2.65035814 3.34136367 -2 2 C-1.34 1.34 -0.68 0.68 0 0 Z " fill="#F11E8A" transform="translate(322,304)"/>
<path d="M0 0 C5.65394631 -0.34615998 9.03006806 0.56574762 14 3 C14 3.33 14 3.66 14 4 C9.02906176 3.58846263 4.55491614 3.20399168 0 1 C0 0.67 0 0.34 0 0 Z " fill="#E6756B" transform="translate(188,267)"/>
<path d="M0 0 C0.66 0.33 1.32 0.66 2 1 C1.6875 4.375 1.6875 4.375 1 8 C0.01 8.66 -0.98 9.32 -2 10 C-2 9.01 -2 8.02 -2 7 C-1.34 7 -0.68 7 0 7 C0 6.01 0 5.02 0 4 C-0.99 3.67 -1.98 3.34 -3 3 C-2.01 2.01 -1.02 1.02 0 0 Z " fill="#C91AA2" transform="translate(339,262)"/>
<path d="M0 0 C2.64 0.33 5.28 0.66 8 1 C7.67 2.65 7.34 4.3 7 6 C6.34 5.67 5.68 5.34 5 5 C5 4.34 5 3.68 5 3 C3.35 2.67 1.7 2.34 0 2 C0 1.34 0 0.68 0 0 Z " fill="#C511B2" transform="translate(239,148)"/>
<path d="M0 0 C3.875 4.75 3.875 4.75 5 7 C3.35 7.66 1.7 8.32 0 9 C-1.10844919 5.67465243 -0.84454356 3.37817425 0 0 Z " fill="#8E02DE" transform="translate(314,95)"/>
<path d="M0 0 C1.32 0.33 2.64 0.66 4 1 C4 1.99 4 2.98 4 4 C4.99 4.33 5.98 4.66 7 5 C7.33 6.65 7.66 8.3 8 10 C4.71211176 6.88983545 2.16264012 3.98381075 0 0 Z " fill="#F5DD4C" transform="translate(93,299)"/>
<path d="M0 0 C2.47379368 2.47379368 2.96652922 4.6928935 4 8 C4.33 8.66 4.66 9.32 5 10 C2.54765115 9.01906046 1.2190732 8.31296172 -0.3125 6.125 C-1.1132654 3.64990694 -0.86325845 2.41712366 0 0 Z " fill="#F27C61" transform="translate(169,249)"/>
<path d="M0 0 C-0.33 0.99 -0.66 1.98 -1 3 C-3.06640625 3.73046875 -3.06640625 3.73046875 -5.5625 4.1875 C-6.38878906 4.34605469 -7.21507812 4.50460938 -8.06640625 4.66796875 C-9.02353516 4.83232422 -9.02353516 4.83232422 -10 5 C-9 2 -9 2 -7.25 0.8125 C-4.70039426 -0.10819096 -2.69076919 -0.14948718 0 0 Z " fill="#DD1899" transform="translate(152,100)"/>
<path d="M0 0 C-1.12073862 0.83905565 -2.24674547 1.67107831 -3.375 2.5 C-4.00148437 2.9640625 -4.62796875 3.428125 -5.2734375 3.90625 C-7 5 -7 5 -9 5 C-9 3.68 -9 2.36 -9 1 C-3.375 -1.125 -3.375 -1.125 0 0 Z " fill="#E03D82" transform="translate(255,258)"/>
<path d="M0 0 C0.77321882 2.98241547 1.41196203 5.97580475 2 9 C0.68 9.33 -0.64 9.66 -2 10 C-2.17942163 6.05272412 -2.09350689 3.4019487 0 0 Z " fill="#EB3C7A" transform="translate(155,172)"/>
<path d="M0 0 C0.66 0.33 1.32 0.66 2 1 C1.67 3.31 1.34 5.62 1 8 C-0.32 7.34 -1.64 6.68 -3 6 C-3 5.34 -3 4.68 -3 4 C-2.34 3.67 -1.68 3.34 -1 3 C-0.67 2.01 -0.34 1.02 0 0 Z " fill="#D216A0" transform="translate(238,168)"/>
<path d="M0 0 C0.99 0.33 1.98 0.66 3 1 C3 1.99 3 2.98 3 4 C3.66 4 4.32 4 5 4 C4.67 4.99 4.34 5.98 4 7 C2.68 7 1.36 7 0 7 C0 4.69 0 2.38 0 0 Z " fill="#8F03D8" transform="translate(328,112)"/>
<path d="M0 0 C0.66 0.33 1.32 0.66 2 1 C2.33333333 3 2.66666667 5 3 7 C3.66 7.33 4.32 7.66 5 8 C4.01 8 3.02 8 2 8 C-0.1875 5 -0.1875 5 -2 2 C-1.34 1.34 -0.68 0.68 0 0 Z " fill="#FCDE1F" transform="translate(110,312)"/>
<path d="M0 0 C0.99 0.99 1.98 1.98 3 3 C3.66 2.34 4.32 1.68 5 1 C5 2.32 5 3.64 5 5 C3.02 5.99 3.02 5.99 1 7 C-0.0625 4.625 -0.0625 4.625 -1 2 C-0.67 1.34 -0.34 0.68 0 0 Z " fill="#F55E5B" transform="translate(147,209)"/>
<path d="M0 0 C0.66 0.33 1.32 0.66 2 1 C2 2.32 2 3.64 2 5 C0.35 4.67 -1.3 4.34 -3 4 C-3 3.01 -3 2.02 -3 1 C-2.01 0.67 -1.02 0.34 0 0 Z " fill="#EF1D8C" transform="translate(173,155)"/>
<path d="M0 0 C6.4 0.49230769 6.4 0.49230769 9.4375 3.0625 C10.2109375 4.0215625 10.2109375 4.0215625 11 5 C7.13351728 3.95902388 3.50538557 2.96301592 0 1 C0 0.67 0 0.34 0 0 Z " fill="#8420C7" transform="translate(300,85)"/>
<path d="M0 0 C0.33 0.66 0.66 1.32 1 2 C2.32 1.67 3.64 1.34 5 1 C3.68 3.31 2.36 5.62 1 8 C0.67 8 0.34 8 0 8 C0 5.36 0 2.72 0 0 Z " fill="#D9169F" transform="translate(251,192)"/>
<path d="M0 0 C1.98 0 3.96 0 6 0 C5.67 0.66 5.34 1.32 5 2 C2.6859378 2.73075648 0.35171131 3.40138258 -2 4 C-1.34 2.68 -0.68 1.36 0 0 Z " fill="#A318B1" transform="translate(284,150)"/>
<path d="M0 0 C1.52519276 0.08937803 3.04681929 0.24537146 4.5625 0.4375 C5.80193359 0.59025391 5.80193359 0.59025391 7.06640625 0.74609375 C7.70449219 0.82988281 8.34257812 0.91367188 9 1 C9 1.33 9 1.66 9 2 C2.375 3.25 2.375 3.25 -1 1 C-0.67 0.67 -0.34 0.34 0 0 Z " fill="#C51AA5" transform="translate(220,141)"/>
<path d="M0 0 C3.53600465 1.91135386 5.78972846 3.62642766 8 7 C5.03 6.505 5.03 6.505 2 6 C2 4.68 2 3.36 2 2 C1.34 2 0.68 2 0 2 C0 1.34 0 0.68 0 0 Z " fill="#882AC0" transform="translate(311,90)"/>
<path d="M0 0 C1.98 0 3.96 0 6 0 C5 2 5 2 3 5 C2.01 4.34 1.02 3.68 0 3 C0 2.01 0 1.02 0 0 Z " fill="#FA476A" transform="translate(264,307)"/>
<path d="M0 0 C0.99 0.33 1.98 0.66 3 1 C2.67 2.32 2.34 3.64 2 5 C0.68 4.67 -0.64 4.34 -2 4 C-2 3.01 -2 2.02 -2 1 C-1.34 0.67 -0.68 0.34 0 0 Z " fill="#E91B91" transform="translate(309,283)"/>
<path d="M0 0 C0.66 0 1.32 0 2 0 C3.03039555 4.53374042 3.17766075 5.64467851 1 10 C0.67 6.7 0.34 3.4 0 0 Z " fill="#F6CA4A" transform="translate(110,265)"/>
<path d="M0 0 C0.66 0.66 1.32 1.32 2 2 C1.625 5.625 1.625 5.625 1 9 C0.34 8.67 -0.32 8.34 -1 8 C-0.67 5.36 -0.34 2.72 0 0 Z " fill="#D127BC" transform="translate(278,201)"/>
<path d="M0 0 C0.33 0 0.66 0 1 0 C1 2.97 1 5.94 1 9 C0.01 9.495 0.01 9.495 -1 10 C-2.15837626 5.94568308 -1.83691257 3.78187881 0 0 Z " fill="#8F02DA" transform="translate(338,145)"/>
<path d="M0 0 C2.31 0.33 4.62 0.66 7 1 C5.515 2.485 5.515 2.485 4 4 C3.67 3.34 3.34 2.68 3 2 C2.01 2.33 1.02 2.66 0 3 C0 2.01 0 1.02 0 0 Z " fill="#E01B9A" transform="translate(123,84)"/>
</svg>
